<svg width="46" height="48" viewBox="0 0 46 48" fill="none" xmlns="http://www.w3.org/2000/svg">
<path d="M31.4683 11.766C28.7819 9.55118 25.1287 8.30219 21.1811 8.24968C17.0553 8.1953 12.8657 9.45835 9.68232 11.7153C7.98138 12.9212 6.60205 14.3699 5.58092 16.0202C4.48103 17.799 3.82653 19.7709 3.63618 21.8816C3.58555 22.4424 3.58742 22.9346 3.5893 23.41C3.59586 25.1016 3.60242 26.5625 0.77439 30.1923C0.757512 30.2138 0.742509 30.2363 0.728444 30.2588C-0.0254485 31.4788 -0.192355 32.4427 0.219285 33.205C0.62905 33.9645 1.48046 34.2477 2.29999 34.3612C2.23717 34.6397 2.25311 34.8919 2.29812 35.0991C2.3872 35.5136 2.62536 35.8708 2.92636 36.155C2.6113 36.575 2.57192 37.0026 2.57848 37.2286C2.59723 37.8709 2.97606 38.4691 3.58836 38.8761C2.96855 40.6127 3.02763 41.902 3.76464 42.8059C4.82609 44.1065 7.03714 44.3503 11.101 43.5936L11.7583 46.3025C12.0003 47.3077 12.8929 48.01 13.9291 48.01H29.3642C30.1237 48.01 30.7998 47.649 31.2189 47.0198C31.6399 46.3906 31.7159 45.6274 31.428 44.925C31.428 44.9241 31.4271 44.9241 31.4271 44.9232C28.6506 38.2047 30.4997 35.6289 32.8401 32.3677C34.5486 29.9879 36.4849 27.2892 36.6105 22.6346C36.6115 22.6121 36.6105 22.5896 36.6096 22.5661C36.3208 18.0353 34.543 14.3015 31.4683 11.766ZM31.6193 31.4909C29.2141 34.8413 26.9431 38.0059 30.0374 45.4942C30.1368 45.7361 30.1134 45.9687 29.969 46.1853C29.8264 46.3991 29.623 46.5079 29.3632 46.5079H13.9281C13.5831 46.5079 13.298 46.2837 13.2174 45.949L12.3903 42.5415C12.3445 42.3528 12.2274 42.1893 12.0636 42.0851C11.8998 41.9809 11.702 41.9442 11.5117 41.9826C7.82385 42.7328 5.60905 42.6906 4.9283 41.856C4.38632 41.1912 4.79234 39.8297 5.22929 38.8048C5.31087 38.6126 5.309 38.3951 5.22461 38.2047C5.18247 38.1105 5.12146 38.026 5.04533 37.9563C4.9692 37.8866 4.87958 37.8333 4.78202 37.7996C4.30568 37.6365 4.08439 37.3421 4.0797 37.1845C4.07595 37.057 4.25974 36.8985 4.5476 36.7813C4.69203 36.7226 4.81461 36.6204 4.89833 36.4888C4.98205 36.3573 5.02276 36.203 5.01483 36.0473C5.00689 35.8915 4.9507 35.7422 4.85404 35.6198C4.75739 35.4975 4.62505 35.4082 4.4754 35.3645C4.18753 35.2801 3.81434 35.0063 3.76558 34.7803C3.72714 34.6022 3.98312 34.3584 4.09471 34.2627C4.33006 34.0602 4.41633 33.7348 4.31318 33.4423C4.21004 33.1497 3.93718 32.9519 3.6268 32.9425L3.55085 32.9406C3.06045 32.9265 1.75708 32.8909 1.54141 32.4905C1.4467 32.3142 1.51516 31.8529 1.98587 31.0802C5.10646 27.0642 5.09896 25.2854 5.09146 23.4016C5.08958 22.9609 5.08771 22.5043 5.13178 22.0138C5.86316 13.9189 13.9384 9.65339 21.1614 9.74903C27.5048 9.83342 34.4951 13.2606 35.1084 22.6252C34.9865 26.7998 33.2752 29.1843 31.6193 31.4909ZM29.0191 16.1271C28.9741 15.6058 28.6872 15.1566 28.2343 14.8988C27.7832 14.6381 27.2535 14.6137 26.779 14.8331L24.0185 16.1149L22.265 13.6216C21.965 13.1969 21.4942 12.9531 20.9738 12.9531C20.4581 12.9531 19.9883 13.195 19.6817 13.6226L17.9311 16.114L15.1687 14.8322C14.6989 14.6146 14.17 14.6381 13.7143 14.8978C13.2624 15.1585 12.9773 15.6067 12.9333 16.1243L12.6041 19.785C12.3678 22.4433 14.2535 25.5695 16.8077 26.7547L19.8964 28.1875C20.1112 28.2869 20.3371 28.3357 20.5622 28.3357C20.7019 28.3357 20.8407 28.316 20.9766 28.2785C21.1117 28.316 21.2504 28.3347 21.3892 28.3347C21.6143 28.3347 21.8402 28.285 22.054 28.1866L25.3865 26.6403C27.8095 25.5189 29.5751 22.3223 29.322 19.5159L29.0191 16.1271ZM20.9073 14.4918C20.9316 14.458 20.9466 14.4543 20.9748 14.4543C21.0085 14.4543 21.0198 14.4599 21.0385 14.4862L22.9983 17.272C24.2632 19.0677 24.3345 22.0035 23.1521 23.6829L21.0395 26.6882C21.0198 26.7154 21.0095 26.721 20.9748 26.721C20.9466 26.721 20.9316 26.7172 20.9119 26.6891L18.955 23.9023C17.6901 22.1067 17.6188 19.1708 18.7984 17.4914L20.9073 14.4918ZM14.0997 19.9191L14.4298 16.2565C14.4326 16.2246 14.4392 16.2143 14.4635 16.2002C14.4992 16.1796 14.5114 16.1824 14.5376 16.1946L17.1247 17.3948C16.0688 19.5965 16.2817 22.7171 17.7257 24.7669L18.5162 25.8921L17.4388 25.3923C15.4472 24.4687 13.9178 21.9613 14.0997 19.9191ZM24.7545 25.2788L23.4352 25.8911L24.3795 24.5475C25.71 22.658 25.8366 19.6725 24.7977 17.4099L27.4119 16.1956C27.4419 16.1815 27.4551 16.1824 27.4869 16.2002C27.516 16.2171 27.5207 16.2265 27.5235 16.2584L27.8264 19.6509C28.0233 21.8394 26.6168 24.4162 24.7545 25.2788ZM18.0286 4.25987C19.1275 4.50085 19.9921 5.36539 20.2303 6.46341C20.3053 6.80847 20.61 7.05508 20.9635 7.05508H20.9645C21.317 7.05508 21.6227 6.80941 21.6977 6.46435C21.9378 5.36539 22.8032 4.49991 23.9022 4.25987C24.2473 4.18485 24.4929 3.87917 24.4929 3.52567C24.4929 3.17216 24.2463 2.86742 23.9013 2.7924C22.8032 2.55423 21.9387 1.68969 21.6977 0.590737C21.6227 0.245671 21.317 0 20.9645 0H20.9635C20.61 0 20.3053 0.246609 20.2303 0.591674C19.9921 1.68969 19.1285 2.55329 18.0295 2.7924C17.6845 2.86742 17.4379 3.17216 17.4379 3.52567C17.4379 3.87917 17.6835 4.18392 18.0286 4.25987ZM20.9654 2.54767C21.2384 2.92383 21.5691 3.25453 21.9453 3.52754C21.5691 3.80056 21.2384 4.13125 20.9654 4.50741C20.6924 4.13125 20.3617 3.80056 19.9855 3.52754C20.3617 3.25453 20.6924 2.92383 20.9654 2.54767ZM44.923 19.9097C43.8232 19.6715 42.9586 18.807 42.7204 17.709C42.6842 17.5414 42.5916 17.3914 42.4582 17.2837C42.3248 17.1761 42.1586 17.1174 41.9872 17.1173H41.9862C41.6337 17.1173 41.328 17.363 41.253 17.708C41.012 18.807 40.1475 19.6715 39.0494 19.9097C38.7044 19.9847 38.4578 20.2895 38.4578 20.643C38.4578 20.9965 38.7034 21.3021 39.0485 21.3772C40.1493 21.6181 41.0148 22.4827 41.253 23.5807C41.328 23.9258 41.6337 24.1724 41.9872 24.1724C42.3407 24.1724 42.6464 23.9258 42.7214 23.5807C42.9595 22.4836 43.825 21.6181 44.9259 21.3772C45.2709 21.3021 45.5166 20.9965 45.5166 20.643C45.5166 20.2895 45.2681 19.9847 44.923 19.9097ZM41.9862 21.6238C41.7131 21.2474 41.3821 20.9166 41.0054 20.6439C41.3816 20.3709 41.7123 20.0402 41.9853 19.664C42.2582 20.04 42.5892 20.371 42.9661 20.6439C42.5904 20.9174 42.2598 21.248 41.9862 21.6238Z" fill="#20A1DC"/>
</svg>
