<svg width="44" height="49" viewBox="0 0 44 49" fill="none" xmlns="http://www.w3.org/2000/svg">
<path d="M4.42875 10.9397C4.54073 10.9397 4.65113 10.9133 4.75104 10.8628C5.59702 10.4362 6.50736 10.22 7.45711 10.22H17.9668C18.6465 10.22 19.1995 9.66703 19.1995 8.98726V0.717259C19.1995 0.321045 18.8785 0 18.4822 0C18.086 0 17.765 0.321045 17.765 0.717259V8.78547H7.45711C6.28109 8.78547 5.15337 9.05344 4.10531 9.58173C3.93545 9.66736 3.80657 9.81696 3.74701 9.99761C3.68744 10.1783 3.70209 10.3752 3.78771 10.5451C3.84749 10.6638 3.93909 10.7636 4.05229 10.8333C4.16548 10.9029 4.29582 10.9398 4.42875 10.9397ZM12.9193 33.5556H19.9237C20.32 33.5556 20.641 33.2345 20.641 32.8383C20.641 32.4421 20.32 32.1211 19.9237 32.1211H12.9193C11.7204 32.1211 10.7451 33.0964 10.7451 34.2952C10.7451 35.4941 11.7204 36.4694 12.9193 36.4694H15.6709C17.6166 36.4694 19.1994 38.0523 19.1994 39.9979V48.2826C19.1994 48.6789 19.5205 48.9999 19.9167 48.9999C20.3129 48.9999 20.6339 48.6789 20.6339 48.2826V39.9979C20.6339 37.2612 18.4076 35.0349 15.6709 35.0349H12.9193C12.5114 35.0349 12.1796 34.703 12.1796 34.2952C12.1796 33.8874 12.5115 33.5556 12.9193 33.5556Z" fill="#20A1DC"/>
<path d="M10.9187 15.8786C10.9187 16.2748 11.2398 16.5958 11.636 16.5958H25.6872C28.6633 16.5958 31.415 18.3327 32.6973 21.0207C32.7793 21.1923 32.926 21.3244 33.1053 21.3879C33.2847 21.4514 33.4819 21.4411 33.6536 21.3592C33.8252 21.2773 33.9573 21.1305 34.0208 20.9512C34.0843 20.7719 34.074 20.5747 33.9921 20.403C32.473 17.2188 29.2131 15.1613 25.6872 15.1613H24.5093C25.671 14.1253 26.4045 12.6185 26.4045 10.9431V0.717259C26.4045 0.321045 26.0834 0 25.6872 0C25.291 0 24.9699 0.321045 24.9699 0.717259V10.9431C24.9699 13.269 23.0776 15.1613 20.7517 15.1613H11.6361C11.5419 15.1613 11.4486 15.1799 11.3616 15.2159C11.2745 15.2519 11.1955 15.3048 11.1288 15.3714C11.0622 15.438 11.0094 15.5171 10.9733 15.6041C10.9373 15.6911 10.9187 15.7844 10.9187 15.8786ZM15.3845 38.1359H8.65459C7.37076 38.1361 6.11017 37.7934 5.00307 37.1434C4.8392 37.0497 4.64502 37.0244 4.46261 37.0729C4.28021 37.1215 4.12428 37.2399 4.02863 37.4027C3.93297 37.5654 3.90531 37.7592 3.95162 37.9422C3.99794 38.1252 4.1145 38.2825 4.27605 38.3802C5.60353 39.1597 7.11507 39.5706 8.65449 39.5704H15.3844C15.5233 39.5706 15.6565 39.6258 15.7548 39.7241C15.853 39.8223 15.9083 39.9555 15.9085 40.0944V48.2827C15.9085 48.679 16.2295 49 16.6257 49C17.0219 49 17.343 48.679 17.343 48.2827V40.0944C17.3431 39.0145 16.4645 38.1359 15.3845 38.1359Z" fill="#20A1DC"/>
<path d="M8.65302 23.7014H22.5515C22.9477 23.7014 23.2688 23.3803 23.2688 22.9841C23.2688 22.5879 22.9477 22.2669 22.5515 22.2669H7.45672C4.1361 22.2669 1.43452 19.5653 1.43452 16.2446C1.43452 14.9238 1.85455 13.67 2.64898 12.6185C2.76366 12.4667 2.81335 12.2756 2.78711 12.0871C2.76087 11.8987 2.66086 11.7284 2.50907 11.6137C2.35728 11.4991 2.16615 11.4494 1.97772 11.4756C1.7893 11.5018 1.61901 11.6019 1.50433 11.7537C0.520157 13.0563 0 14.6092 0 16.2447C0 19.405 1.97715 22.1104 4.75878 23.1941C1.93832 24.6217 0 27.5485 0 30.9198C0 32.8365 0.615409 34.6534 1.77947 36.1741C1.84639 36.2618 1.93266 36.3328 2.03155 36.3816C2.13044 36.4304 2.23928 36.4556 2.34955 36.4554C2.48332 36.4553 2.6144 36.4178 2.72798 36.3472C2.84156 36.2765 2.93312 36.1755 2.9923 36.0555C3.05148 35.9355 3.07593 35.8014 3.06289 35.6683C3.04984 35.5352 2.99982 35.4083 2.91848 35.3021C1.94769 34.0338 1.43442 32.5184 1.43442 30.9197C1.43452 26.9396 4.6728 23.7014 8.65302 23.7014ZM32.7819 22.853C26.8661 22.853 22.0532 27.6659 22.0532 33.5818C22.0532 39.4976 26.866 44.3105 32.7819 44.3105C34.8076 44.3105 36.781 43.7424 38.489 42.6674C38.65 42.5661 38.7642 42.405 38.8064 42.2195C38.8486 42.034 38.8153 41.8393 38.714 41.6783C38.6127 41.5173 38.4516 41.4031 38.2661 41.3609C38.0806 41.3187 37.8859 41.3519 37.7249 41.4533C36.2461 42.384 34.5369 42.8759 32.7819 42.8759C27.6571 42.8759 23.4878 38.7065 23.4878 33.5817C23.4878 28.4568 27.6571 24.2874 32.7819 24.2874C37.9068 24.2874 42.0762 28.4568 42.0762 33.5817C42.0762 35.7793 41.2945 37.9119 39.875 39.5867C39.7553 39.7322 39.6976 39.919 39.7144 40.1067C39.7313 40.2944 39.8213 40.4679 39.9651 40.5898C40.1088 40.7116 40.2948 40.772 40.4827 40.7579C40.6706 40.7437 40.8455 40.6562 40.9694 40.5142C42.6082 38.5806 43.5107 36.1186 43.5107 33.5817C43.5108 27.6659 38.6979 22.853 32.7819 22.853Z" fill="#20A1DC"/>
<path d="M36.1457 28.9661C36.1457 27.5675 35.0079 26.4297 33.6093 26.4297C32.2106 26.4297 31.0728 27.5675 31.0728 28.9661C31.0728 30.3648 32.2106 31.5026 33.6093 31.5026C35.0079 31.5026 36.1457 30.3648 36.1457 28.9661ZM33.6093 30.0682C33.0016 30.0682 32.5073 29.5739 32.5073 28.9662C32.5073 28.3585 33.0016 27.8643 33.6093 27.8643C34.2169 27.8643 34.7112 28.3586 34.7112 28.9662C34.7112 29.5739 34.2169 30.0682 33.6093 30.0682ZM29.8694 38.5545C31.7553 38.5545 33.2897 37.0203 33.2897 35.1343C33.2897 33.2484 31.7553 31.7141 29.8694 31.7141C27.9835 31.7141 26.4492 33.2484 26.4492 35.1343C26.4492 37.0203 27.9835 38.5545 29.8694 38.5545ZM29.8694 33.1487C30.9643 33.1487 31.8552 34.0394 31.8552 35.1344C31.8552 36.2293 30.9644 37.1201 29.8694 37.1201C28.7746 37.1201 27.8837 36.2294 27.8837 35.1344C27.8837 34.0394 28.7746 33.1487 29.8694 33.1487ZM36.2145 33.0314C36.2527 33.1872 36.342 33.3257 36.4682 33.4248C36.5944 33.5239 36.7501 33.5778 36.9105 33.578C37.0193 33.5781 37.1267 33.5534 37.2245 33.5058C37.3224 33.4583 37.4081 33.3891 37.4753 33.3035C37.5425 33.2179 37.5893 33.1182 37.6122 33.0118C37.6352 32.9055 37.6336 32.7953 37.6077 32.6896L37.3765 31.7473C37.3541 31.6558 37.3139 31.5696 37.2582 31.4936C37.2024 31.4177 37.1323 31.3535 37.0517 31.3046C36.9711 31.2558 36.8818 31.2233 36.7886 31.2091C36.6955 31.1948 36.6005 31.1991 36.509 31.2216C36.3243 31.2669 36.1651 31.3838 36.0665 31.5464C35.968 31.7091 35.938 31.9043 35.9833 32.0891L36.2145 33.0314ZM36.7796 36.9729C36.8046 36.9729 36.8299 36.9716 36.8554 36.9689L38.0375 36.8446C38.2266 36.8246 38.4001 36.7304 38.5198 36.5826C38.6395 36.4348 38.6956 36.2454 38.6758 36.0563C38.6343 35.6623 38.2822 35.3749 37.8875 35.4179L36.7055 35.5422C36.5226 35.5612 36.354 35.6496 36.2345 35.7893C36.115 35.929 36.0536 36.1092 36.0631 36.2928C36.0726 36.4764 36.1523 36.6493 36.2856 36.7758C36.4189 36.9024 36.5957 36.973 36.7796 36.9729ZM33.6096 40.3247C33.7823 40.3249 33.9493 40.2625 34.0795 40.149L34.887 39.4479C34.9581 39.3862 35.0164 39.311 35.0584 39.2268C35.1005 39.1425 35.1256 39.0508 35.1322 38.9568C35.1388 38.8629 35.1269 38.7685 35.0971 38.6792C35.0672 38.5898 35.0201 38.5072 34.9583 38.4361C34.8336 38.2925 34.6569 38.2043 34.4672 38.1909C34.2774 38.1775 34.0901 38.2401 33.9465 38.3648L33.139 39.0659C33.0286 39.1617 32.9501 39.289 32.9141 39.4307C32.878 39.5724 32.8861 39.7217 32.9373 39.8587C32.9885 39.9956 33.0803 40.1136 33.2005 40.1969C33.3206 40.2802 33.4634 40.3248 33.6096 40.3247ZM27.9637 29.6545C28.0292 29.6737 28.097 29.6835 28.1653 29.6836C28.3203 29.6834 28.4712 29.6331 28.5952 29.5401C28.7193 29.447 28.8098 29.3163 28.8534 29.1675L29.0772 28.4024C29.1036 28.312 29.112 28.2173 29.1018 28.1237C29.0917 28.03 29.0631 27.9393 29.0179 27.8567C28.9727 27.774 28.9116 27.7011 28.8382 27.6421C28.7648 27.5831 28.6805 27.5391 28.5901 27.5127C28.4997 27.4862 28.4049 27.4777 28.3113 27.4879C28.2176 27.498 28.1269 27.5265 28.0442 27.5718C27.9616 27.617 27.8887 27.6781 27.8297 27.7515C27.7707 27.8249 27.7267 27.9093 27.7003 27.9997L27.4765 28.7648C27.4232 28.9474 27.4446 29.1437 27.5359 29.3105C27.6273 29.4773 27.7811 29.6011 27.9637 29.6545Z" fill="#20A1DC"/>
</svg>
