<svg width="49" height="49" viewBox="0 0 49 49" fill="none" xmlns="http://www.w3.org/2000/svg">
<path d="M24.5009 4.94308C13.7176 4.94308 4.94387 13.7162 4.94387 24.5001C4.94387 35.2837 13.7176 44.0569 24.5009 44.0569C35.2847 44.0569 44.0579 35.2838 44.0579 24.5001C44.0579 13.7162 35.2847 4.94308 24.5009 4.94308ZM6.98554 24.5001C6.98554 18.9994 9.53488 14.0843 13.513 10.8706L34.5093 38.8654C31.6703 40.8492 28.2198 42.0153 24.5009 42.0153C14.843 42.0153 6.98554 34.1577 6.98554 24.5001ZM36.1126 37.6007L15.1738 9.68169C17.8756 7.97415 21.0748 6.98475 24.5009 6.98475C34.1587 6.98475 42.0162 14.8422 42.0162 24.5001C42.0162 29.7073 39.7316 34.3901 36.1126 37.6007ZM5.10498 6.12502C6.79349 6.12502 8.16799 4.75163 8.16799 3.06251C8.16799 1.3739 6.79349 0 5.10498 0C3.41637 0 2.04297 1.374 2.04297 3.06251C2.04297 4.75153 3.41637 6.12502 5.10498 6.12502ZM5.10498 2.04157C5.66802 2.04157 6.12632 2.49937 6.12632 3.06241C6.12632 3.62545 5.66802 4.08325 5.10498 4.08325C4.54244 4.08325 4.08464 3.62545 4.08464 3.06241C4.08454 2.49947 4.54244 2.04157 5.10498 2.04157Z" fill="#20A1DC"/>
<path d="M45.9369 41.8536C44.2483 41.8536 42.8749 43.2281 42.8749 44.9168C42.8749 45.7007 43.1711 46.4158 43.6568 46.9584H34.3216C42.8888 43.2082 48.9994 34.6285 48.9994 24.5002C48.9994 10.9596 38.0418 0 24.4997 0C10.9595 0 0 10.9575 0 24.5002C0 31.044 2.54834 37.1969 7.1753 41.8238C9.37258 44.0211 11.9145 45.7485 14.6777 46.9584H1.02044C0.456899 46.9584 0.000100076 47.4152 0.000100076 47.9788C0.000100076 48.5433 0.456999 49 1.02044 49H47.9785C48.5425 49 48.9993 48.5432 48.9993 47.9788C48.9993 47.49 48.6551 47.0821 48.1959 46.9824C48.6946 46.4367 48.9993 45.7117 48.9993 44.9168C48.9994 43.228 47.6259 41.8536 45.9369 41.8536ZM2.04177 24.5001C2.04177 12.1164 12.1165 2.04157 24.4997 2.04157C36.8834 2.04157 46.9581 12.1164 46.9581 24.5001C46.9581 36.8836 36.8834 46.9583 24.4997 46.9583C12.1165 46.9583 2.04177 36.8836 2.04177 24.5001ZM45.9369 43.8953C46.4998 43.8953 46.9581 44.3541 46.9581 44.9166C46.9581 45.4791 46.4998 45.9369 45.9369 45.9369C45.3743 45.9369 44.9165 45.4791 44.9165 44.9166C44.9164 44.3541 45.3743 43.8953 45.9369 43.8953ZM43.8956 3.06251H45.9369V5.10419H43.8956V3.06251ZM1.02044 8.1667H3.06211V10.2084H1.02044V8.1667Z" fill="#20A1DC"/>
<path d="M3.0625 42.8762H5.10427V44.918H3.0625V42.8762ZM13.2709 23.48C11.5824 23.48 10.2089 24.8545 10.2089 26.5428C10.2089 28.2315 11.5824 29.6059 13.2709 29.6059C14.9595 29.6059 16.3334 28.2315 16.3334 26.5428C16.3335 24.8544 14.9596 23.48 13.2709 23.48ZM13.2709 27.5642C12.7083 27.5642 12.2506 27.1054 12.2506 26.5428C12.2506 25.9803 12.7084 25.5225 13.2709 25.5225C13.8339 25.5225 14.2917 25.9803 14.2917 26.5428C14.2917 27.1054 13.834 27.5642 13.2709 27.5642ZM24.5002 8.16797C22.8116 8.16797 21.4377 9.54187 21.4377 11.2305C21.4377 12.9191 22.8116 14.293 24.5002 14.293C26.1888 14.293 27.5627 12.9191 27.5627 11.2305C27.5627 9.54187 26.1888 8.16797 24.5002 8.16797ZM24.5002 12.2513C23.9372 12.2513 23.4794 11.7935 23.4794 11.2305C23.4794 10.6674 23.9372 10.2096 24.5002 10.2096C25.0632 10.2096 25.521 10.6674 25.521 11.2305C25.521 11.7935 25.0632 12.2513 24.5002 12.2513ZM35.7295 26.5428C34.0409 26.5428 32.667 27.9162 32.667 29.6059C32.667 31.2945 34.0409 32.6679 35.7295 32.6679C37.418 32.6679 38.792 31.2945 38.792 29.6059C38.7919 27.9161 37.418 26.5428 35.7295 26.5428ZM35.7295 30.6262C35.1665 30.6262 34.7087 30.1684 34.7087 29.6059C34.7087 29.0423 35.1665 28.5845 35.7295 28.5845C36.292 28.5845 36.7502 29.0423 36.7502 29.6059C36.7502 30.1684 36.292 30.6262 35.7295 30.6262ZM34.6781 21.1909L33.3618 16.2571C33.2116 15.7063 32.1435 13.9207 29.7571 14.6382C27.467 15.3268 27.4207 16.958 27.593 17.6033L28.956 22.7989C29.1062 23.2829 29.9106 24.947 32.4606 24.2341C35.1474 23.4831 34.7636 21.4972 34.6781 21.1909ZM31.9224 22.4485C31.0337 22.6738 30.8919 22.1814 30.8585 22.0647L29.6194 17.3418C29.5693 17.0915 29.5193 16.5908 30.3704 16.3655C31.1933 16.1477 31.3967 16.6284 31.4593 16.9037L32.6615 21.5431C32.6859 21.6641 32.8259 22.2195 31.9224 22.4485ZM26.5464 36.4249L25.23 31.491C25.0798 30.9403 24.0117 29.1547 21.6253 29.8722C19.3352 30.5608 19.289 32.1919 19.4613 32.8373L20.8243 38.0329C20.9745 38.5168 21.7788 40.1809 24.3289 39.4681C27.0158 38.7172 26.6319 36.7312 26.5464 36.4249ZM23.7907 37.6824C22.902 37.9077 22.7601 37.4154 22.7268 37.2986L21.4876 32.5757C21.4376 32.3254 21.3875 31.8248 22.2386 31.5995C23.0615 31.3817 23.265 31.8623 23.3276 32.1377L24.5297 36.7771C24.5542 36.8981 24.6941 37.4534 23.7907 37.6824Z" fill="#20A1DC"/>
</svg>
