<svg width="45" height="45" viewBox="0 0 45 45" fill="none" xmlns="http://www.w3.org/2000/svg">
<path d="M20.8721 31.2335H21.3271C21.1078 30.6501 21.7405 30.0947 22.294 30.4125L23.0986 30.8781L24.5147 28.4304C24.7697 27.9812 23.8028 27.2587 23.4135 27.0336C23.0223 26.7815 21.9018 26.3681 21.669 26.7603L21.3793 27.2616L22.1955 27.733C22.5162 27.9194 22.6282 28.3328 22.4389 28.6526C22.3948 28.7292 22.336 28.7964 22.2659 28.8503C22.1957 28.9042 22.1157 28.9437 22.0302 28.9666C21.9448 28.9895 21.8557 28.9953 21.768 28.9836C21.6803 28.972 21.5958 28.9432 21.5193 28.8989L20.706 28.4304L19.1074 31.1959L19.1731 31.2345H20.8721V31.2335ZM24.4364 31.2615C24.9078 31.3736 25.2527 31.7986 25.2527 32.2941V33.9942C25.2527 34.0193 25.2527 34.0463 25.2498 34.0705C25.3019 34.4704 25.3261 34.8539 25.3261 35.218C25.3261 36.5539 25.0218 37.7922 24.4693 38.9031H41.207C42.4473 38.9031 43.4663 37.8869 43.4663 36.6466V3.60874C43.4663 2.36847 42.4482 1.35231 41.207 1.35231H17.0084C15.7681 1.35231 14.7491 2.36847 14.7491 3.60874V24.2431C16.8297 24.3416 18.7326 25.3355 20.0086 26.9342L20.507 26.0716H20.5041C20.7862 25.6002 21.2189 25.3539 21.7222 25.2805C21.1011 23.5089 21.8342 21.0777 23.6144 20.3107C23.7307 20.2592 23.8591 20.2414 23.9849 20.2593C24.1108 20.2773 24.2291 20.3302 24.3263 20.4122C25.2246 21.1733 25.6902 22.2957 25.7636 23.4375C26.7083 23.0598 27.768 22.9777 28.7455 23.3283C28.9889 23.4162 29.1512 23.6268 29.186 23.8673V23.8644C29.4516 25.7122 27.7457 27.6238 25.8863 28.0044C25.9462 28.3657 25.8921 28.7549 25.6806 29.1027L24.4364 31.2615ZM2.38123 34.0734L2.37543 32.2932C2.37543 32.1125 2.4218 31.9425 2.50101 31.7947C1.3158 30.9128 0.141225 29.7634 0.0117892 28.4265C-0.0790088 27.4789 0.362424 26.6878 1.06852 26.0387C0.490893 25.0612 0.0880982 23.988 0.501519 23.0926C0.764253 22.515 1.29262 22.1779 1.91758 21.9973C1.38342 20.1407 2.94727 18.3422 4.86369 18.6213C5.68473 18.7392 6.39663 19.2347 6.80232 19.9437C8.20679 19.4868 9.25869 19.6452 9.96189 20.4257C10.5888 21.1212 10.8438 22.3064 10.7231 23.9774C11.3094 23.9996 11.8783 24.1909 12.3632 24.5357L13.3958 24.3087V3.60874C13.3958 1.62084 15.0195 0 17.0074 0H41.207C43.1949 0 44.8187 1.62084 44.8187 3.60874V36.6466C44.8187 38.6316 43.1949 40.2554 41.207 40.2554H23.6318C19.5797 45.6192 10.0073 46.0162 5.11966 41.4628C3.05449 39.5386 2.0277 36.948 2.38123 34.0734ZM23.9003 32.5858H3.72871V33.7005H23.9003V32.5858ZM23.9738 35.218C23.9738 35.163 23.9738 35.1089 23.9709 35.0538H3.66303C3.63308 37.1953 4.52271 39.0595 6.03923 40.4756C10.0227 44.1887 17.6517 44.1751 21.6188 40.4756C23.087 39.1088 23.9738 37.2957 23.9738 35.218ZM17.5261 31.2335L17.8352 30.6994C17.6817 29.9324 17.274 29.2563 16.707 28.7607C15.8715 28.0324 14.7027 27.731 13.5996 27.9967C13.5011 29.1085 13.2412 30.1845 12.8771 31.2335H17.5261ZM18.7142 29.1751L19.2725 28.2111C17.9724 26.2319 15.6638 25.2708 13.3417 25.6862C13.4818 25.9788 13.5774 26.2966 13.618 26.6202C15.7237 26.2667 17.7638 27.3321 18.7142 29.1751ZM24.5649 26.1769C24.789 26.3411 25.0034 26.5275 25.1889 26.7274C26.405 26.7216 27.6752 25.605 27.8472 24.4845C26.6001 24.2875 25.0778 25.0757 24.5649 26.1769ZM23.3903 25.5142C23.6202 25.0573 23.968 24.6323 24.3872 24.2711C24.4587 23.7726 24.4258 23.2385 24.2751 22.7401C24.1708 22.3865 24.0037 22.0552 23.7738 21.7712C22.8156 22.5372 22.4785 24.4845 23.3903 25.5142ZM12.2685 27.7069C12.2937 27.3669 12.3342 26.9428 12.2463 26.6009C12.0135 25.7026 11.094 25.125 10.1512 25.3906C9.69916 25.5191 9.22295 25.1501 9.30506 24.6188C9.52432 22.9265 9.40648 21.8292 8.95732 21.3308C8.58254 20.9115 7.82331 20.9444 6.68737 21.4264C6.30389 21.5877 5.86343 21.3607 5.7678 20.9579C5.49154 19.7911 3.92769 19.5805 3.33944 20.6102C3.20795 20.8397 3.14859 21.1035 3.16909 21.3673C3.18959 21.6311 3.289 21.8825 3.45438 22.089C3.79633 22.516 3.50365 23.1458 2.97818 23.1844C2.48265 23.223 1.86928 23.3428 1.72729 23.6558C1.52155 24.102 2.02577 25.0767 2.51839 25.8108C2.72414 26.117 2.64686 26.5285 2.32907 26.7468C1.8036 27.1109 1.29648 27.6914 1.35444 28.3019C1.38149 28.5975 1.52444 28.9182 1.77655 29.2659C2.21992 29.8735 2.98397 30.5313 4.06582 31.2345H7.35194C7.22636 30.7853 7.0863 30.3362 6.93851 29.887L4.90715 29.3422C4.54879 29.2466 4.33532 28.8766 4.43095 28.5154C4.52657 28.157 4.89653 27.9407 5.25779 28.0392L6.37731 28.3377L5.76973 26.8868L3.919 26.3913C3.55774 26.2957 3.34427 25.9228 3.4399 25.5645C3.53552 25.2032 3.90548 24.9897 4.26674 25.0854L5.00568 25.2853C4.87431 25.0226 4.73715 24.7627 4.59805 24.5019C4.42032 24.1735 4.54299 23.7649 4.87141 23.5901C5.19983 23.4123 5.60842 23.535 5.78615 23.8634C5.97258 24.2083 6.15321 24.556 6.32515 24.9038L6.76561 24.1783C6.95976 23.8605 7.37608 23.7591 7.69388 23.9542C8.01167 24.1494 8.11309 24.5618 7.91797 24.8825L7.01482 26.3643L7.63882 27.8566L8.02229 27.1911C8.21162 26.8685 8.62214 26.7584 8.94476 26.9448C9.26835 27.1312 9.3775 27.5446 9.19108 27.8672L8.23866 29.518C8.42799 30.0899 8.59703 30.6627 8.75351 31.2345H11.4398C11.8715 30.1024 12.1835 28.9143 12.2685 27.7069ZM32.7879 26.713C32.4131 26.713 32.1118 26.4087 32.1118 26.0368C32.1118 25.662 32.4131 25.3606 32.7879 25.3606H38.513L36.9443 22.4773C36.8709 22.3669 36.8319 22.2371 36.8323 22.1045V8.55433C36.8323 7.00497 38.0977 5.73669 39.6499 5.73669C41.2022 5.73669 42.4676 7.00207 42.4676 8.55433V22.1054C42.4676 22.2532 42.4318 22.3518 42.3555 22.4783L40.2421 26.3585C40.0856 26.6463 39.8344 26.7149 39.5524 26.7149H32.7879V26.713ZM31.3806 29.6484H40.4381C40.8129 29.6484 41.1143 29.9527 41.1143 30.3246V36.5017C41.1143 36.8736 40.8129 37.1779 40.4381 37.1779H31.3806C31.0087 37.1779 30.7044 36.8736 30.7044 36.5017V30.3246C30.7044 29.9527 31.0077 29.6484 31.3806 29.6484ZM39.762 31.0007H32.0567V35.8256H39.762V31.0007ZM18.6186 16.5494C18.3453 16.2944 18.3288 15.8703 18.58 15.597C18.835 15.3255 19.259 15.3091 19.5324 15.5612L20.4384 16.3987L21.9965 14.5151H17.9714V18.5402H21.9965V16.6315L21.019 17.8061C20.7726 18.1016 20.3293 18.1296 20.0443 17.8688L18.6186 16.5494ZM23.0455 13.272L23.741 12.4364C23.9796 12.1486 24.4036 12.1109 24.6915 12.3485C24.8282 12.463 24.914 12.6271 24.9299 12.8047C24.9458 12.9824 24.8907 13.1591 24.7765 13.2961L23.3498 15.0077V19.2163C23.3498 19.5911 23.0484 19.8925 22.6736 19.8925H17.2962C16.9234 19.8925 16.6201 19.5911 16.6201 19.2163V13.839C16.6201 13.4661 16.9244 13.1628 17.2962 13.1628H22.6736C22.8055 13.1623 22.9347 13.2003 23.0455 13.272ZM25.9916 15.851C25.6168 15.851 25.3154 15.5467 25.3154 15.1749C25.3154 14.8001 25.6168 14.4987 25.9916 14.4987H32.0451C32.4199 14.4987 32.7213 14.8001 32.7213 15.1749C32.7213 15.5467 32.4199 15.851 32.0451 15.851H25.9916ZM25.9916 18.5566C25.6168 18.5566 25.3154 18.2552 25.3154 17.8833C25.3154 17.5086 25.6168 17.2072 25.9916 17.2072H32.0451C32.4199 17.2072 32.7213 17.5086 32.7213 17.8833C32.7213 18.2552 32.4199 18.5566 32.0451 18.5566H25.9916ZM18.6186 7.40969C18.3453 7.15758 18.3288 6.73064 18.58 6.45921C18.835 6.18585 19.259 6.16943 19.5324 6.42058L20.4384 7.26094L21.9965 5.37447H17.9714V9.40338H21.9965V7.4947L21.019 8.66638C20.7726 8.96195 20.3293 8.9919 20.0443 8.72916L18.6186 7.40969ZM23.0455 4.13517L23.741 3.2977C23.9796 3.01275 24.4036 2.97508 24.6915 3.2098C24.9764 3.44839 25.0141 3.87244 24.7765 4.16028L23.3498 5.87192V10.0795C23.3498 10.4524 23.0484 10.7557 22.6736 10.7557H17.2962C16.9234 10.7557 16.6201 10.4514 16.6201 10.0795V4.69928C16.6201 4.32739 16.9244 4.02602 17.2962 4.02602H22.6736C22.8098 4.02505 22.9392 4.06369 23.0455 4.13517ZM25.9916 6.71132C25.6168 6.71132 25.3154 6.40995 25.3154 6.03517C25.3154 5.66328 25.6168 5.35901 25.9916 5.35901H32.0451C32.4199 5.35901 32.7213 5.66328 32.7213 6.03517C32.7213 6.40995 32.4199 6.71132 32.0451 6.71132H25.9916ZM25.9916 9.4198C25.6168 9.4198 25.3154 9.11553 25.3154 8.74365C25.3154 8.37177 25.6168 8.0675 25.9916 8.0675H32.0451C32.4199 8.0675 32.7213 8.37177 32.7213 8.74365C32.7213 9.11553 32.4199 9.4198 32.0451 9.4198H25.9916ZM39.1699 23.7475L39.649 24.6265L40.6564 22.7787H38.6415L39.1699 23.7475ZM38.9728 14.2572C38.9728 13.8853 39.2771 13.5811 39.649 13.5811C40.0209 13.5811 40.3251 13.8853 40.3251 14.2572V21.4283H41.1133V11.0184H38.1836V21.4283H38.9718V14.2572H38.9728ZM38.1846 9.66612H41.1143V8.55433C41.1143 7.2706 39.5485 6.58865 38.6144 7.51884C38.4782 7.65467 38.3701 7.81605 38.2963 7.99374C38.2226 8.17143 38.1846 8.36193 38.1846 8.55433V9.66612Z" fill="black"/>
</svg>
