<svg width="57" height="46" viewBox="0 0 57 46" fill="none" xmlns="http://www.w3.org/2000/svg">
<path d="M50.234 13.274C49.2067 5.68102 42.8591 0 35.3248 0C31.5215 0 27.9637 1.41773 25.1888 4.01636C22.4139 1.41773 18.8561 0 15.0529 0C6.7527 0 0 6.91351 0 15.4114C0 17.0904 0.489808 18.9723 1.46425 21.0496H1.09995C0.492447 21.0496 0 21.5421 0 22.1496C0 22.7571 0.492447 23.2495 1.09995 23.2495H2.6357C4.69007 26.7276 7.93889 30.6827 12.3688 35.0875C18.3723 41.057 24.4599 45.7273 24.5207 45.7738C24.7178 45.9247 24.9533 46 25.1888 46C25.4243 46 25.6597 45.9247 25.857 45.7738C25.9034 45.7383 30.5592 42.1681 35.7189 37.3035C36.1609 36.8867 36.1814 36.1905 35.7646 35.7486C35.348 35.3066 34.6518 35.286 34.2097 35.7028C30.2748 39.4128 26.642 42.3544 25.189 43.5037C23.4623 42.1375 18.6553 38.2379 13.9042 33.5119C10.1006 29.7282 7.18883 26.2801 5.22025 23.2495H15.0677C15.3065 23.2495 15.5388 23.1718 15.7295 23.0281C15.9203 22.8844 16.0591 22.6825 16.1249 22.4529L18.0468 15.754L23.3688 32.8052C23.4386 33.029 23.5782 33.2246 23.7671 33.3635C23.9559 33.5024 24.1843 33.5773 24.4187 33.5773C24.6532 33.5773 24.8815 33.5024 25.0704 33.3635C25.2592 33.2246 25.3988 33.029 25.4687 32.8052L28.416 23.3596H33.3266C33.9341 23.3596 34.4265 22.8672 34.4265 22.2597C34.4265 21.6522 33.9341 21.1597 33.3266 21.1597H27.607C27.3725 21.1597 27.1441 21.2347 26.9553 21.3736C26.7664 21.5125 26.6268 21.7082 26.557 21.932L24.4184 28.7852L19.0522 11.5924C18.982 11.3663 18.8406 11.1689 18.6491 11.0298C18.4576 10.8906 18.2262 10.8171 17.9895 10.8202C17.7528 10.8229 17.5234 10.9019 17.3352 11.0454C17.147 11.1889 17.0101 11.3893 16.9448 11.6168L14.2386 21.0497H3.91846C2.78144 18.9031 2.1999 17.011 2.1999 15.4114C2.1999 8.12654 7.96572 2.1999 15.0529 2.1999C18.615 2.1999 21.9276 3.66415 24.3804 6.32273C24.4834 6.43436 24.6084 6.52346 24.7475 6.58439C24.8867 6.64533 25.0369 6.67679 25.1888 6.67679C25.3407 6.67679 25.491 6.64533 25.6301 6.58439C25.7693 6.52346 25.8943 6.43436 25.9973 6.32273C28.4501 3.66415 31.7627 2.1999 35.3248 2.1999C41.4523 2.1999 46.6617 6.61884 47.8999 12.6632C47.4814 12.6084 47.0598 12.5809 46.6377 12.5809C41.3005 12.5809 36.9582 16.9232 36.9582 22.2604C36.9582 27.5977 41.3005 31.94 46.6377 31.94C51.975 31.94 56.3173 27.5977 56.3173 22.2604C56.3174 18.1933 53.7958 14.7045 50.234 13.274ZM46.6379 29.7401C42.5136 29.7401 39.1582 26.3847 39.1582 22.2604C39.1582 18.1362 42.5136 14.7808 46.6379 14.7808C50.7621 14.7808 54.1175 18.1362 54.1175 22.2604C54.1175 26.3847 50.7621 29.7401 46.6379 29.7401Z" fill="#20A1DC"/>
</svg>
