<svg width="49" height="49" viewBox="0 0 49 49" fill="none" xmlns="http://www.w3.org/2000/svg">
<path d="M38.3142 14.0807C35.6999 14.0762 33.1855 15.0847 31.2989 16.8945L30.4963 16.0926C29.8603 15.4528 29.1037 14.9454 28.2702 14.6001C27.4367 14.2547 26.543 14.0782 25.6408 14.0807C24.2351 14.079 22.8875 13.5199 21.8935 12.5259C20.8995 11.5319 20.3403 10.1842 20.3387 8.77853C20.3412 7.87642 20.1647 6.98278 19.8195 6.14933C19.4743 5.31589 18.9672 4.55919 18.3275 3.92306L17.388 2.98357C16.4445 2.03462 15.3221 1.2823 14.0858 0.770167C12.8495 0.258034 11.5239 -0.00372798 10.1858 4.01095e-05C4.56917 4.01095e-05 0 4.56921 0 10.1858V10.4753C0 11.3803 0.120468 12.2823 0.359056 13.1545C1.02344 15.5711 1.99456 17.8927 3.24872 20.0626C2.24828 20.7422 1.42925 21.6562 0.863005 22.7249C0.296758 23.7935 0.00048196 24.9845 0 26.1939V26.65C0 27.1897 0.0594515 27.7318 0.17679 28.2599C1.97911 36.3727 8.23482 42.7715 16.2373 44.8187C18.1077 47.1561 20.8714 48.5 23.8761 48.5C24.7107 48.5 25.5431 48.3928 26.3488 48.1832L27.1795 47.9665C37.345 45.3139 45.3772 37.3708 48.1409 27.2351C48.3795 26.3613 48.5 25.4602 48.5 24.5559V24.2665C48.5 18.6498 43.9308 14.0807 38.3142 14.0807ZM1.86881 12.7422C1.6669 12.0035 1.56457 11.2411 1.56451 10.4753V10.1858C1.56451 5.43125 5.432 1.56456 10.1858 1.56456C11.3184 1.56152 12.4403 1.78313 13.4867 2.21656C14.5331 2.65 15.4832 3.28665 16.2819 4.08968L17.2214 5.02917C17.7153 5.52042 18.1068 6.10475 18.3733 6.74832C18.6399 7.3919 18.7761 8.08195 18.7742 8.77853C18.7742 12.5647 21.8547 15.6452 25.6408 15.6452C27.0575 15.6452 28.3889 16.1967 29.3902 17.198L30.1842 17.992L30.1725 18.0037C29.5328 18.6398 29.0257 19.3965 28.6805 20.23C28.3353 21.0634 28.1588 21.9571 28.1613 22.8592C28.1596 24.2649 27.6005 25.6125 26.6065 26.6065C25.6125 27.6005 24.2648 28.1597 22.8591 28.1613C21.3032 28.1613 19.8052 28.6932 18.5935 29.6554C17.7642 29.4939 17.0167 29.0493 16.4789 28.3976C15.9411 27.746 15.6464 26.9277 15.6451 26.0828C15.6469 25.3987 15.513 24.7211 15.2512 24.0891C14.9893 23.457 14.6048 22.8832 14.1197 22.4008L12.6663 20.9481C11.9792 20.2565 11.1616 19.7082 10.261 19.3351C9.36036 18.9619 8.39459 18.7713 7.41971 18.7742C6.4622 18.7745 5.51391 18.9612 4.62783 19.3241C3.42885 17.258 2.50152 15.0458 1.86881 12.7422ZM1.70376 27.9204C1.61136 27.5032 1.56467 27.0772 1.56451 26.65V26.1939C1.56451 22.9648 4.19134 20.3387 7.41971 20.3387C8.98423 20.3387 10.4541 20.9473 11.5602 22.0534L13.0129 23.5061C13.3524 23.8437 13.6216 24.2452 13.8049 24.6875C13.9881 25.1298 14.0819 25.6041 14.0806 26.0828C14.0821 27.4635 14.6312 28.7872 15.6075 29.7635C16.5838 30.7398 17.9075 31.2889 19.2881 31.2903C20.262 31.2903 21.1765 31.6689 21.8641 32.3573L23.3942 33.8867C23.915 34.4052 24.3279 35.0217 24.609 35.7007C24.8902 36.3797 25.034 37.1076 25.0322 37.8425V38.2125C25.0322 41.297 22.5228 43.8065 19.4383 43.8065C19.0519 43.8065 18.6639 43.7658 18.286 43.6868L17.4741 43.5155C9.63194 41.8649 3.44193 35.743 1.70376 27.9204ZM46.9354 24.5559C46.9354 25.3217 46.8338 26.0844 46.6319 26.8236C44.0145 36.4204 36.4094 43.941 26.7845 46.4521L25.953 46.6687C25.2763 46.8463 24.5777 46.9355 23.8761 46.9355C22.1339 46.9376 20.4367 46.3819 19.0331 45.3499C19.1684 45.3577 19.303 45.371 19.4383 45.371C23.3856 45.371 26.5968 42.1598 26.5968 38.2125V37.8425C26.5991 36.9021 26.415 35.9706 26.0552 35.1017C25.6953 34.2329 25.1669 33.4439 24.5003 32.7805L22.9702 31.2512C22.4317 30.7129 21.781 30.3 21.0646 30.0419C21.64 29.8335 22.2472 29.7266 22.8591 29.7258C26.6453 29.7258 29.7258 26.6453 29.7258 22.8592C29.7258 21.4425 30.2773 20.1111 31.2786 19.1098L32.2181 18.1703C33.0168 17.3673 33.9668 16.7306 35.0132 16.2972C36.0596 15.8638 37.1816 15.6422 38.3142 15.6452C43.068 15.6452 46.9354 19.5119 46.9354 24.2665V24.5559Z" fill="#20A1DC"/>
</svg>
