<svg width="148" height="172" viewBox="0 0 148 172" fill="none" xmlns="http://www.w3.org/2000/svg">
<path d="M30.9724 160.131C30.8162 160.058 30.6704 159.98 30.5246 159.897C30.4674 159.865 30.4153 159.834 30.358 159.798C30.2799 159.751 30.1966 159.699 30.1238 159.652C30.0509 159.605 29.978 159.553 29.9051 159.501C29.8582 159.464 29.8062 159.428 29.7593 159.392C29.676 159.329 29.5927 159.267 29.5146 159.199C29.473 159.162 29.4365 159.126 29.3949 159.095C29.2855 158.996 29.1762 158.892 29.0669 158.782C29.02 158.73 28.968 158.678 28.9211 158.626C28.8742 158.574 28.8222 158.517 28.7753 158.46C28.6868 158.355 28.6035 158.251 28.5202 158.142C28.4213 158.007 28.3276 157.866 28.2391 157.72C28.2287 157.71 28.2235 157.694 28.213 157.684C28.1297 157.548 28.0516 157.403 27.9735 157.257C27.9631 157.236 27.9475 157.215 27.9371 157.194C27.8642 157.049 27.7965 156.898 27.7288 156.742C27.7028 156.674 27.6716 156.601 27.6455 156.533C27.6143 156.455 27.5831 156.372 27.5518 156.289C27.5154 156.19 27.4789 156.091 27.4477 155.992C27.4321 155.945 27.4165 155.893 27.4009 155.841C27.3644 155.721 27.328 155.596 27.2915 155.476C27.2915 155.466 27.2863 155.45 27.2811 155.44C27.2238 155.226 27.1718 155.003 27.1301 154.779C27.1197 154.716 27.1041 154.659 27.0937 154.596C27.0729 154.492 27.0572 154.393 27.0416 154.289C27.0156 154.138 26.9948 153.987 26.9739 153.831C26.9479 153.607 26.9271 153.378 26.9063 153.144C26.9063 153.139 26.9063 153.134 26.9063 153.123C26.8906 152.889 26.875 152.644 26.8698 152.399V152.389C26.8542 151.926 26.8438 151.441 26.8334 150.936C26.8334 150.926 26.8334 150.916 26.8334 150.905C26.8073 149.786 26.7969 148.578 26.7865 147.282C26.7865 147.183 26.7865 147.084 26.7865 146.985V146.751C21.3771 143.356 16.5353 139.108 12.3181 134.052L12.2869 134.016C11.9329 133.573 11.5893 133.136 11.2561 132.683V146.626C11.2561 146.699 11.2561 146.771 11.2561 146.844C11.2561 147.053 11.2561 147.261 11.2561 147.469C11.2561 147.542 11.2561 147.61 11.2561 147.683C11.2561 148.219 11.2456 148.734 11.2404 149.239C11.2404 149.302 11.2404 149.364 11.2404 149.432C11.2404 149.63 11.2352 149.817 11.23 150.005C11.23 150.067 11.23 150.129 11.2248 150.192C11.2196 150.442 11.2144 150.692 11.2144 150.931C11.204 151.436 11.1884 151.92 11.1728 152.389C11.1571 152.889 11.1207 153.373 11.0634 153.831C11.0426 153.987 11.0218 154.144 10.9957 154.295C10.9801 154.393 10.9645 154.482 10.9489 154.576C10.9333 154.649 10.9229 154.721 10.9072 154.794C10.8604 155.008 10.8135 155.221 10.7615 155.424C10.7563 155.44 10.751 155.461 10.751 155.471C10.7146 155.601 10.6782 155.726 10.6417 155.851C10.6313 155.893 10.6157 155.935 10.6053 155.976C10.5688 156.086 10.5324 156.2 10.4907 156.309C10.4699 156.367 10.4491 156.419 10.4283 156.476C10.3918 156.575 10.3502 156.674 10.3085 156.768C10.2825 156.835 10.2512 156.898 10.2252 156.96C10.1888 157.043 10.1523 157.122 10.1159 157.2C9.94407 157.538 9.75143 157.856 9.53277 158.152C9.44947 158.262 9.36617 158.371 9.27766 158.475C9.2308 158.527 9.18395 158.579 9.13709 158.637C9.08502 158.694 9.03296 158.746 8.97569 158.803C8.88198 158.902 8.78306 158.991 8.68414 159.084C8.63728 159.126 8.58522 159.173 8.53836 159.215C8.45506 159.282 8.37176 159.35 8.28846 159.412C8.2416 159.444 8.19995 159.48 8.15309 159.511C8.08021 159.569 8.00211 159.621 7.91881 159.673C7.85113 159.72 7.78345 159.761 7.71056 159.803C7.64288 159.844 7.5804 159.886 7.51272 159.923C7.39297 159.99 7.26802 160.058 7.13786 160.12C7.11704 160.131 7.09621 160.146 7.07018 160.157C5.71133 160.808 3.74334 161.136 1.1558 161.141H0V162.213H38.0217V161.141H36.9492C34.3305 161.115 32.3364 160.787 30.9724 160.131Z" fill="#960256"/>
<path d="M68.4684 153.045C58.415 153.414 48.6844 151.832 39.287 148.297C35.7728 146.974 32.4667 145.334 29.3534 143.361C28.4787 142.809 27.6197 142.226 26.7762 141.617C22.5956 138.613 18.8054 134.974 15.4056 130.699C13.8333 128.695 12.4485 126.555 11.2458 124.285C10.267 122.432 9.40796 120.49 8.66866 118.454C8.38232 117.663 8.11159 116.856 7.86168 116.033C6.18525 110.546 5.4876 105.095 5.76874 99.6957C6.02385 94.7288 6.99223 89.9182 8.66866 85.2585V80.4375C8.06994 81.6558 7.52327 82.9105 7.02347 84.2017C4.97738 89.5069 3.85803 94.9527 3.6706 100.539C3.48838 106.125 4.27974 111.67 6.04468 117.158C6.76315 119.376 7.63261 121.526 8.66866 123.608C9.4392 125.16 10.2982 126.67 11.2458 128.143C12.1725 129.59 13.1877 131.001 14.2863 132.376C17.9828 136.812 22.1478 140.576 26.7762 143.663C27.6197 144.225 28.4787 144.767 29.3534 145.282C32.1335 146.933 35.0751 148.354 38.1677 149.546C47.5703 153.175 57.5768 155.086 68.1925 155.273C72.5866 155.273 76.9704 155.002 81.3437 154.461C80.5627 153.597 79.7974 152.717 79.0529 151.821C75.5751 152.54 72.0504 152.946 68.4684 153.045Z" fill="#960256"/>
<path d="M34.9552 3.35287C37.0012 4.47223 38.4434 6.05495 39.2816 8.10103C40.1198 10.1523 40.5832 12.6618 40.6769 15.6398C40.7706 18.623 40.8175 22.0644 40.8175 25.9743V55.2963C36.7409 56.2178 32.9195 57.6027 29.3532 59.4457V64.1158C47.4763 54.6715 67.8487 60.2319 75.7831 73.5236C82.8377 85.3472 77.6209 99.2012 75.8456 103.189L76.5068 103.804C79.8232 102.413 82.3535 100.206 84.108 97.1863C87.086 91.9748 88.4345 86.9507 88.1585 82.1036C87.8774 77.2618 86.5758 72.9353 84.2486 69.1139C82.2077 65.7766 79.5577 62.9288 76.3037 60.5807C76.3037 60.5807 76.2985 60.5755 76.2829 60.5651C76.2725 60.5547 76.2465 60.5391 76.2204 60.5182C76.1944 60.4974 76.158 60.4714 76.1163 60.4454C76.059 60.4037 75.9914 60.3568 75.9081 60.2996C75.9028 60.2944 75.8924 60.2892 75.882 60.284C75.5592 60.0549 75.226 59.8362 74.8928 59.6228C72.1543 57.863 69.3273 56.5823 66.4065 55.7857C66.3805 55.7753 66.3545 55.7701 66.3284 55.7597C65.183 55.364 63.9387 54.9787 62.6007 54.6247C60.6015 54.0936 58.3992 53.6199 55.9887 53.2606V1.95758H81.0311C86.43 1.95758 91.1261 2.84265 95.135 4.6128C99.1386 6.38295 102.398 8.80388 104.912 11.8756C107.427 14.9473 109.333 18.4408 110.639 22.3507C111.936 26.2607 112.592 30.1706 112.592 34.0806C112.592 39.2921 111.613 44.2277 109.661 48.8821C107.703 53.5418 104.866 57.358 101.143 60.3308C98.3525 62.5695 95.6036 63.8243 92.9015 64.1002C90.1994 64.3761 88.3668 64.7093 84.8317 65.079L86.5081 66.7554C89.1113 66.3858 90.3868 66.4743 92.9015 67.0313C95.4161 67.5936 97.6913 68.3381 99.7426 69.2701C102.908 70.7591 105.792 72.7583 108.401 75.2729C111.004 77.7928 113.289 80.6771 115.242 83.9363C117.199 87.1902 118.688 90.6368 119.714 94.2656C120.734 97.8944 121.25 101.482 121.25 105.017C121.062 112.462 119.48 119.115 116.502 124.983C113.524 130.85 109.609 135.786 104.772 139.784C102.835 141.383 100.779 142.851 98.6076 144.184C100.081 145.949 101.632 147.703 103.241 149.427C109.192 147.349 114.685 144.736 119.719 141.601C126.883 137.134 132.704 131.824 137.176 125.686C141.643 119.542 143.97 112.654 144.158 105.022C144.34 99.2533 143.179 93.948 140.664 89.1061C138.15 84.2643 134.797 80.1252 130.611 76.6787C126.425 73.2373 121.677 70.5352 116.372 68.5776C111.066 66.62 105.621 65.5527 100.034 65.3653C105.621 64.2512 110.645 62.481 115.112 60.0601C119.579 57.6391 123.301 54.8902 126.284 51.8185C129.262 48.7468 131.543 45.5345 133.131 42.1868C134.708 38.8391 135.406 35.58 135.224 32.4145C135.224 28.3172 134.146 24.3135 132.011 20.4036C129.872 16.4936 126.8 13.0522 122.796 10.0742C118.787 7.09621 113.951 4.67007 108.276 2.81141C102.58 0.937137 96.1138 0 88.851 0H21.2729V1.67643H26.0211C29.9258 1.67643 32.9039 2.23872 34.9552 3.35287Z" fill="#960256"/>
<path d="M72.1128 42.2442C70.4467 44.7432 68.4215 47.185 66.0474 49.5643L63.5952 52.2299C64.0534 52.3549 64.5115 52.485 64.9645 52.6204L67.1147 50.2776C69.494 47.664 72.2013 45.0712 75.2365 42.5149C78.2718 39.9586 81.3956 37.6054 84.6079 35.4656C87.8254 33.3258 91.0013 31.6025 94.1563 30.2905C97.3113 28.9837 100.133 28.2705 102.637 28.1507H105.136V27.073H68.1872V28.1455H70.6862C72.9458 28.2652 74.4348 29.0097 75.148 30.3738C75.8613 31.7431 75.955 33.4403 75.4188 35.4604C74.8825 37.4856 73.7788 39.7452 72.1128 42.2442Z" fill="#960256"/>
<path d="M146.016 157.554C144.824 160.053 143.132 161.953 140.93 163.265C138.728 164.572 136.291 165.405 133.61 165.764C130.934 166.118 128.164 166.035 125.311 165.493C122.453 164.957 119.777 164.155 117.278 163.083C112.04 160.698 107.37 157.398 103.267 153.175C103.012 152.91 102.752 152.644 102.502 152.379C101.846 151.691 101.195 150.999 100.56 150.301C99.1023 148.713 97.7018 147.11 96.3533 145.48C95.791 144.803 95.2392 144.127 94.7029 143.445C93.8179 142.325 92.9536 141.195 92.1154 140.055L69.5981 108.469L68.2913 106.636L45.1648 74.1902L55.515 62.9029C55.3223 62.8508 55.1297 62.7987 54.9371 62.7467C54.8277 62.7207 54.7236 62.6946 54.6143 62.6686C54.4373 62.6217 54.2603 62.5853 54.0884 62.5436L26.7865 92.2197V65.329V60.8828V43.6707C26.7865 41.1717 26.8125 38.9694 26.875 37.0639C26.9323 35.1636 27.2915 33.5549 27.9475 32.2481C28.5983 30.9413 29.6135 29.9261 30.9828 29.2128C32.3521 28.4995 34.3461 28.1403 36.9597 28.1403H38.0322V27.073H0V28.1455H1.0725C3.69128 28.1455 5.6853 28.4995 7.04935 29.218C8.41862 29.9313 9.43385 30.9413 10.0846 32.2533C10.7406 33.5601 11.0999 35.1688 11.1571 37.0691C11.2196 38.9746 11.2456 41.1769 11.2456 43.6759V75.8822V79.5891V118.001C12.7763 122.099 14.8536 125.826 17.4308 129.117C20.2422 132.657 23.366 135.755 26.7709 138.394V94.3699L34.4502 86.1595L76.9338 144.887C77.9334 146.287 78.9694 147.651 80.0367 148.974C80.6355 149.718 81.2498 150.458 81.8798 151.181C82.7128 152.155 83.5718 153.108 84.4569 154.039C85.1754 154.805 85.9095 155.555 86.6592 156.289C88.8146 158.413 91.0793 160.412 93.4534 162.286C99.701 167.222 106.933 170.288 115.143 171.481C118.235 171.954 121.391 172.105 124.603 171.928C127.815 171.746 130.913 171.121 133.886 170.054C136.858 168.982 139.535 167.435 141.919 165.415C144.298 163.39 146.141 160.771 147.453 157.559H146.016V157.554Z" fill="#960256"/>
</svg>
