<svg width="36" height="33" viewBox="0 0 36 33" fill="none" xmlns="http://www.w3.org/2000/svg">
<path d="M33.1872 12.8907H29.1L33.0287 8.24754C33.7935 8.5901 34.7387 8.45763 35.3817 7.81294C36.2061 6.98852 36.2061 5.65448 35.3817 4.83014L31.4035 0.851928C30.5866 0.0371468 29.2564 0.0197092 28.4214 0.852631C27.7864 1.48755 27.6422 2.42974 27.9878 3.2048L16.5407 12.8907H2.8125C1.26169 12.8907 0 14.1524 0 15.7032C0 16.8807 0.732938 17.9299 1.82918 18.332C1.87137 23.5661 5.30156 28.1412 10.2656 29.6618V30.8906C10.2656 32.0537 11.2118 32.9999 12.3749 32.9999H23.6248C24.7879 32.9999 25.7342 32.0537 25.7342 30.8906V29.6618C30.6982 28.141 34.1284 23.566 34.1705 18.332C35.2668 17.93 35.9997 16.8807 35.9997 15.7032C35.9997 14.1524 34.738 12.8907 33.1872 12.8907ZM29.4151 1.84762C29.6934 1.5701 30.1359 1.57383 30.4098 1.84692L34.3872 5.8245C34.6584 6.09562 34.666 6.53979 34.3865 6.81921C34.1132 7.09336 33.6672 7.09329 33.3939 6.81921C33.3938 6.81907 33.3937 6.819 33.3936 6.81886C33.3934 6.81872 33.3934 6.81865 33.3932 6.81851L29.4157 2.841C29.4157 2.84093 29.4156 2.84093 29.4156 2.84086C29.1417 2.56678 29.1418 2.12093 29.4151 1.84762ZM28.8789 4.29281L31.9416 7.35548L27.2578 12.8907H18.7176L28.8789 4.29281ZM24.3279 30.8906C24.3279 31.2783 24.0125 31.5937 23.6248 31.5937H12.3749C11.9872 31.5937 11.6717 31.2783 11.6717 30.8906V30.0003C12.3656 30.1237 13.0717 30.1875 13.7811 30.1875H22.2185C22.9279 30.1875 23.6341 30.1238 24.3279 30.0003V30.8906ZM24.8559 28.449C23.9989 28.6695 23.1116 28.7812 22.2185 28.7812H13.7811C12.8881 28.7812 12.0007 28.6695 11.1437 28.449C6.57781 27.2749 3.36192 23.2068 3.2381 18.5086H32.7617C32.6377 23.2068 29.4218 27.2749 24.8559 28.449ZM33.6611 17.0213C33.6552 17.0234 33.6492 17.0255 33.6434 17.0277C33.4925 17.0843 33.3518 17.1095 33.1872 17.1095H2.8125C2.07316 17.1095 1.40625 16.5102 1.40625 15.7033C1.40625 14.9279 2.03709 14.297 2.8125 14.297H33.1872C33.9626 14.2969 34.5935 14.9279 34.5935 15.7032C34.5934 16.2993 34.2187 16.829 33.6611 17.0213Z" fill="white"/>
</svg>
