<svg width="36" height="36" viewBox="0 0 36 36" fill="none" xmlns="http://www.w3.org/2000/svg">
<path d="M18.4396 30.52C18.3354 30.7004 18.1464 30.8013 17.952 30.8013C17.8565 30.8013 17.7598 30.7769 17.6712 30.7257L11.3251 27.0604C11.0561 26.905 10.964 26.561 11.1193 26.292C11.2747 26.023 11.6188 25.9309 11.8878 26.0862L18.2338 29.7515C18.5028 29.9069 18.5949 30.251 18.4396 30.52ZM33.4693 15.0213V32.8317C33.4693 34.075 32.4579 35.0864 31.2147 35.0864H20.1928C19.7465 35.0864 19.3123 34.9534 18.9452 34.7088C18.8962 34.712 18.8472 34.7136 18.7979 34.7136C18.4163 34.7136 18.0298 34.617 17.676 34.4135L8.1302 28.9C7.61023 28.6009 7.2373 28.1151 7.08078 27.5326C6.92427 26.9499 7.00372 26.3422 7.30459 25.8215L11.5967 18.388H11.2815C10.7418 18.388 10.2542 18.1856 9.87127 17.8027L9.62012 17.5516C9.4456 17.3771 9.24964 17.2958 9.00341 17.2958H8.29571C8.06516 17.9221 7.46251 18.3701 6.75713 18.3701H4.16415C3.26162 18.3701 2.52734 17.6349 2.52734 16.7313V8.36418C2.52734 7.46053 3.26162 6.72541 4.16415 6.72541H6.75713C7.46251 6.72541 8.06516 7.17337 8.29571 7.79971H8.46727C8.65775 7.79971 8.9191 7.74578 9.2521 7.32539C10.4149 5.84967 11.2079 4.69204 11.6131 2.15664C11.7549 1.31444 12.452 0.81255 13.3088 0.931378C14.503 1.09689 15.6461 2.42861 15.4124 4.57054C15.4118 4.57582 15.4111 4.58116 15.4104 4.58643L15.118 6.70551H18.8036C19.8765 6.70551 20.7493 7.57837 20.7493 8.6512C20.7493 8.99868 20.6575 9.325 20.4972 9.60766L24.1576 9.12201L24.8108 7.97936C25.2668 7.18026 26.01 6.60574 26.9036 6.36203C27.7967 6.1184 28.7287 6.23547 29.5283 6.69173C31.184 7.63891 31.7615 9.75525 30.8161 11.4097L30.302 12.3094L33.2496 14.5752C33.3881 14.6817 33.4693 14.8466 33.4693 15.0213ZM25.5598 8.93603L25.6298 8.92675C25.782 8.9065 25.9306 8.94989 26.0463 9.03869L26.0465 9.03841L29.4018 11.6175L29.8394 10.8516C30.4771 9.73549 30.0872 8.30765 28.9702 7.66865C28.4319 7.36153 27.803 7.28292 27.1996 7.44745C26.5962 7.61205 26.0948 7.99912 25.7876 8.53736L25.5598 8.93596L25.5598 8.93603ZM7.27098 8.36425C7.27098 8.08096 7.04049 7.85048 6.7572 7.85048H4.16422C3.88684 7.85048 3.65241 8.08574 3.65241 8.36425V16.7314C3.65241 17.0099 3.88677 17.2451 4.16422 17.2451H6.7572C7.04049 17.2451 7.27098 17.0147 7.27098 16.7314V8.36425ZM11.2816 17.2631H17.7293C18.0324 17.2631 18.279 17.0165 18.279 16.7134C18.279 16.4104 18.0324 16.1638 17.7293 16.1638H16.5076C16.1969 16.1638 15.9451 15.9119 15.9451 15.6013C15.9451 15.2907 16.1969 15.0388 16.5076 15.0388H18.3572C18.7889 15.0388 19.1401 14.6876 19.1401 14.2559C19.1401 13.8243 18.7889 13.4731 18.3572 13.4731H17.1355C16.8248 13.4731 16.573 13.2212 16.573 12.9106C16.573 12.5999 16.8248 12.3481 17.1355 12.3481H18.7498C19.232 12.3481 19.6244 11.9549 19.6244 11.4716C19.6244 10.9882 19.232 10.597 18.7498 10.597H17.5281C17.2175 10.597 16.9656 10.3452 16.9656 10.0345C16.9656 9.72389 17.2175 9.47203 17.5281 9.47203H18.8037C19.2562 9.47203 19.6244 9.10387 19.6244 8.65134C19.6244 8.19881 19.2562 7.83065 18.8037 7.83065H13.3107C13 7.83065 12.7482 7.57879 12.7482 7.26815C12.7482 6.95751 13 6.70565 13.3107 6.70565H13.9824L14.295 4.44103C14.4674 2.83537 13.6875 2.1198 13.1544 2.0459C12.7816 1.99415 12.7377 2.25367 12.7233 2.33896C12.277 5.13213 11.369 6.45681 10.1349 8.02289C9.66062 8.62181 9.09987 8.92485 8.46734 8.92485H8.39605V16.171H9.00355C9.54453 16.171 10.0329 16.3733 10.4158 16.7563L10.6669 17.0074C10.8414 17.1819 11.0368 17.2632 11.2817 17.2632L11.2816 17.2631ZM18.2379 33.4389C18.7774 33.7492 19.4701 33.5635 19.7815 33.0247L28.5481 17.8401L25.3491 10.0989L24.8578 10.164L23.7685 12.0696C23.7328 12.132 23.7007 12.1962 23.6712 12.2613C24.4346 12.5251 24.9847 13.2505 24.9847 14.1025C24.9847 15.1764 24.1109 16.0502 23.0369 16.0502C21.963 16.0502 21.0892 15.1765 21.0892 14.1025C21.0892 13.2205 21.6786 12.4741 22.484 12.2352C22.5584 11.9845 22.6604 11.7413 22.7916 11.5115L23.4556 10.3501L20.6055 10.7282C20.6979 10.9582 20.7493 11.2089 20.7493 11.4715C20.7493 12.1526 20.4077 12.7553 19.8869 13.117C20.1243 13.4351 20.265 13.8294 20.265 14.2559C20.265 14.9965 19.8408 15.6398 19.2227 15.9559C19.3386 16.1835 19.404 16.4409 19.404 16.7134C19.404 17.6368 18.6527 18.388 17.7294 18.388H12.896L8.27884 26.3842C8.12844 26.6445 8.08885 26.9487 8.16739 27.2408C8.24579 27.5327 8.43212 27.7758 8.69206 27.9253L18.2379 33.4389ZM22.2143 14.1025C22.2143 14.5561 22.5834 14.9252 23.037 14.9252C23.4907 14.9252 23.8597 14.5561 23.8597 14.1025C23.8597 13.8086 23.7044 13.551 23.472 13.4054C23.4857 13.5832 23.5189 13.7604 23.5734 13.9332C23.6669 14.2295 23.5025 14.5454 23.2063 14.6389C23.1499 14.6567 23.0929 14.6652 23.0369 14.6652C22.7979 14.6652 22.5763 14.5117 22.5006 14.2718C22.4342 14.0615 22.3896 13.8466 22.3643 13.6304C22.2701 13.7643 22.2143 13.9268 22.2143 14.1025ZM22.5558 30.4694H27.5952C28.0742 30.4694 28.4638 30.0798 28.4638 29.6009V24.2414C28.4638 23.7625 28.0741 23.3728 27.5952 23.3728H26.6529L22.5558 30.4694V30.4694ZM32.3444 15.2984L27.0255 11.2098L29.6937 17.6666C29.7604 17.828 29.7483 18.0113 29.661 18.1627L27.3024 22.2479H27.5953C28.6946 22.2479 29.5889 23.1422 29.5889 24.2414V29.6009C29.5889 30.7002 28.6946 31.5945 27.5953 31.5945H21.9063L20.7557 33.5874C20.677 33.7237 20.5861 33.8485 20.4851 33.9614H31.2148C31.8377 33.9614 32.3444 33.4546 32.3444 32.8318V15.2984ZM16.1264 24.578L15.911 24.9506C15.7556 25.2195 15.8476 25.5635 16.1165 25.7191C16.2052 25.7703 16.302 25.7947 16.3975 25.7947C16.5918 25.7947 16.7808 25.694 16.885 25.5136L17.101 25.14C17.3283 25.2087 17.5596 25.2435 17.7868 25.2435C18.5208 25.2435 19.2112 24.8945 19.58 24.2576C20.3821 22.8678 19.3969 21.9841 18.7449 21.3992C17.9796 20.7127 17.8278 20.4693 18.1326 19.9412C18.3936 19.4903 19.0497 19.3795 19.5944 19.6937C19.5944 19.6937 19.5945 19.6938 19.5946 19.6938C19.979 19.9165 20.2239 20.3082 20.2185 20.6918C20.2142 21.0024 20.4624 21.2577 20.7731 21.2621C21.0823 21.2667 21.339 21.0181 21.3434 20.7075C21.352 20.0905 21.0802 19.495 20.6121 19.0577L20.8274 18.6852C20.9829 18.4163 20.891 18.0722 20.6221 17.9167C20.3531 17.7612 20.009 17.8531 19.8535 18.1221L19.6382 18.4946C18.6764 18.2039 17.6416 18.5438 17.1587 19.3781C16.3566 20.7679 17.3418 21.6516 17.9937 22.2365C18.759 22.923 18.9109 23.1664 18.606 23.6945C18.3449 24.1454 17.689 24.2562 17.1443 23.9419C16.7597 23.7193 16.5147 23.3275 16.5201 22.9438C16.5245 22.6331 16.2762 22.3778 15.9655 22.3735C15.9629 22.3735 15.9602 22.3735 15.9575 22.3735C15.6505 22.3735 15.3995 22.6202 15.3952 22.9281C15.3866 23.5451 15.6584 24.1407 16.1266 24.5779L16.1264 24.578Z" fill="#20A1DC"/>
</svg>
