<svg width="36" height="36" viewBox="0 0 36 36" fill="none" xmlns="http://www.w3.org/2000/svg">
<path d="M33.305 21.2342L30.5614 16.4822C30.4974 16.3714 30.3974 16.2856 30.2781 16.2392L24.4853 13.9868C24.6655 13.3783 24.7629 12.7344 24.7629 12.0682C24.7629 8.3385 21.7285 5.30416 17.9988 5.30416C14.2691 5.30416 11.2347 8.3385 11.2347 12.0682C11.2347 12.7345 11.332 13.3783 11.5123 13.9868L5.71948 16.2392C5.60016 16.2856 5.50018 16.3714 5.4362 16.4822L2.69253 21.2342C2.61048 21.3763 2.59459 21.5473 2.64908 21.7021C2.7035 21.8569 2.82289 21.9803 2.97582 22.0397L5.36075 22.9671V30.7071C5.36075 30.939 5.5032 31.1472 5.71948 31.2313L17.7949 35.9266C17.8605 35.9521 17.9296 35.9648 17.9987 35.9648C18.0678 35.9648 18.137 35.9521 18.2026 35.9266L30.278 31.2313C30.4942 31.1472 30.6367 30.939 30.6367 30.7071V22.9671L33.0216 22.0397C33.1746 21.9803 33.2939 21.8569 33.3484 21.7021C33.403 21.5473 33.3871 21.3764 33.305 21.2342ZM17.9989 6.42916C21.1083 6.42916 23.6379 8.95887 23.6379 12.0682C23.6379 15.1776 21.1082 17.7073 17.9989 17.7073C14.8895 17.7073 12.3598 15.1776 12.3598 12.0682C12.3598 8.95887 14.8894 6.42916 17.9989 6.42916ZM17.9989 18.8323C20.679 18.8323 23.0001 17.2654 24.0942 14.9995L28.5334 16.7591L17.9989 20.8552L7.46429 16.7591L11.9035 14.9995C12.9975 17.2654 15.3186 18.8323 17.9989 18.8323ZM3.99479 21.2288L6.16927 17.4626L17.1838 21.7454L15.0093 25.5117L3.99479 21.2288ZM6.48589 23.4045L15.0514 26.7351C15.3101 26.8355 15.6036 26.7325 15.7424 26.4921L17.4364 23.5581V34.5801L6.48589 30.3223V23.4045ZM29.5118 30.3223L18.5614 34.5801V23.5581L20.2553 26.4921C20.3942 26.7325 20.6876 26.8357 20.9463 26.7351L29.5118 23.4046V30.3223ZM20.9884 25.5117L18.8139 21.7454L29.8284 17.4626L32.0029 21.2288L20.9884 25.5117ZM16.5993 15.7221C16.9887 15.7221 17.3551 15.5701 17.6311 15.2941L22.0161 10.9092C22.5858 10.3394 22.5858 9.41224 22.016 8.84229C21.74 8.56631 21.373 8.4143 20.9827 8.4143C20.5924 8.4143 20.2254 8.56631 19.9493 8.84229L16.7216 12.0701L15.8601 10.9861C15.5815 10.6357 15.1648 10.4347 14.7168 10.4347C14.3887 10.4347 14.0663 10.5473 13.8089 10.7518C13.1789 11.2527 13.0739 12.1729 13.5747 12.8028L15.41 15.1124C15.6844 15.4946 16.1275 15.7222 16.5993 15.7221ZM14.5089 11.6324C14.5846 11.5722 14.6637 11.5596 14.7167 11.5596C14.8198 11.5596 14.9154 11.6057 14.9793 11.686L16.233 13.2637C16.3327 13.3892 16.4812 13.4662 16.6413 13.4753C16.801 13.4843 16.9577 13.4248 17.0711 13.3115L20.7447 9.6378C20.8082 9.57424 20.8927 9.5393 20.9826 9.5393C21.0726 9.5393 21.1569 9.57431 21.2204 9.63774C21.3516 9.76901 21.3517 9.98255 21.2205 10.1137L16.8356 14.4986C16.7542 14.58 16.6621 14.5971 16.5991 14.5971C16.4866 14.5971 16.3853 14.5444 16.3211 14.4525C16.3144 14.4429 16.3075 14.4336 16.3003 14.4245L14.4553 12.1028C14.3404 11.9583 14.3645 11.7473 14.5089 11.6324ZM17.4364 3.2322V0.597656C17.4364 0.287016 17.6881 0.0351562 17.9989 0.0351562C18.3095 0.0351562 18.5614 0.287016 18.5614 0.597656V3.2322C18.5614 3.54284 18.3095 3.7947 17.9989 3.7947C17.6881 3.7947 17.4364 3.54284 17.4364 3.2322ZM11.7566 2.34162C11.6013 2.0726 11.6935 1.72856 11.9625 1.57324C12.2315 1.41799 12.5756 1.5101 12.7309 1.77912L14.0481 4.06069C14.2035 4.3297 14.1113 4.67374 13.8423 4.82906C13.7537 4.88018 13.6569 4.90451 13.5615 4.90451C13.3671 4.90451 13.1781 4.80361 13.0738 4.62319L11.7566 2.34162ZM7.50388 5.92348C7.6592 5.65439 8.00323 5.56221 8.27225 5.7176L10.5538 7.03484C10.8228 7.19016 10.915 7.53419 10.7597 7.80321C10.6556 7.98363 10.4664 8.08453 10.272 8.08453C10.1766 8.08453 10.0799 8.0602 9.99132 8.00909L7.70975 6.69185C7.44073 6.53653 7.34855 6.19249 7.50388 5.92348ZM5.81778 11.9201C5.81778 11.6095 6.06957 11.3576 6.38028 11.3576H9.01475C9.32546 11.3576 9.57725 11.6095 9.57725 11.9201C9.57725 12.2308 9.32546 12.4826 9.01475 12.4826H6.38028C6.06957 12.4826 5.81778 12.2309 5.81778 11.9201ZM21.9099 4.2087L23.2272 1.92713C23.3825 1.65804 23.7265 1.56579 23.9955 1.72125C24.2645 1.87657 24.3568 2.22061 24.2015 2.48962L22.8842 4.7712C22.78 4.95162 22.5909 5.05252 22.3965 5.05252C22.3011 5.05252 22.2043 5.02819 22.1157 4.97707C21.8468 4.82182 21.7546 4.47778 21.9099 4.2087ZM25.09 8.05964C24.9347 7.79063 25.0269 7.44659 25.2959 7.29127L27.5775 5.97403C27.8465 5.81878 28.1905 5.91096 28.3458 6.17991C28.5012 6.44892 28.409 6.79296 28.14 6.94828L25.8584 8.26552C25.7698 8.31663 25.6731 8.34096 25.5777 8.34096C25.3832 8.34096 25.1941 8.24006 25.09 8.05964ZM26.6869 11.6537H29.3214C29.6321 11.6537 29.8839 11.9056 29.8839 12.2162C29.8839 12.5269 29.6321 12.7787 29.3214 12.7787H26.6869C26.3762 12.7787 26.1244 12.5269 26.1244 12.2162C26.1244 11.9056 26.3762 11.6537 26.6869 11.6537Z" fill="#20A1DC"/>
</svg>
