<svg width="32" height="34" viewBox="0 0 32 34" fill="none" xmlns="http://www.w3.org/2000/svg">
<path d="M9.19699 23.8528C9.19699 23.9116 9.1854 23.9699 9.16287 24.0243C9.14034 24.0787 9.10731 24.1281 9.06568 24.1698C9.02405 24.2114 8.97463 24.2444 8.92024 24.2669C8.86585 24.2895 8.80755 24.3011 8.74868 24.3011H3.70242C3.58352 24.3011 3.46949 24.2538 3.38542 24.1698C3.30134 24.0857 3.25411 23.9717 3.25411 23.8528C3.25411 23.7339 3.30134 23.6198 3.38542 23.5358C3.46949 23.4517 3.58352 23.4044 3.70242 23.4044H8.74868C8.80755 23.4044 8.86585 23.416 8.92024 23.4386C8.97463 23.4611 9.02405 23.4941 9.06568 23.5358C9.10731 23.5774 9.14034 23.6268 9.16287 23.6812C9.1854 23.7356 9.19699 23.7939 9.19699 23.8528ZM8.74868 20.1741H3.70242C3.58352 20.1741 3.46949 20.2214 3.38542 20.3055C3.30134 20.3895 3.25411 20.5036 3.25411 20.6225C3.25411 20.7414 3.30134 20.8554 3.38542 20.9395C3.46949 21.0235 3.58352 21.0708 3.70242 21.0708H8.74868C8.86758 21.0708 8.98161 21.0235 9.06568 20.9395C9.14976 20.8554 9.19699 20.7414 9.19699 20.6225C9.19699 20.5036 9.14976 20.3895 9.06568 20.3055C8.98161 20.2214 8.86758 20.1741 8.74868 20.1741ZM28.2678 19.5958C28.2678 20.7608 27.9223 21.8996 27.2751 22.8683C26.6279 23.8369 25.708 24.5919 24.6316 25.0377C23.5553 25.4836 22.371 25.6002 21.2284 25.3729C20.0858 25.1457 19.0362 24.5847 18.2124 23.7609C17.3887 22.9371 16.8277 21.8876 16.6004 20.745C16.3731 19.6023 16.4898 18.418 16.9356 17.3417C17.3814 16.2654 18.1364 15.3454 19.1051 14.6982C20.0737 14.051 21.2126 13.7055 22.3776 13.7055C23.9392 13.7073 25.4364 14.3285 26.5406 15.4327C27.6448 16.537 28.266 18.0341 28.2678 19.5958ZM27.3712 19.5958C27.3712 18.6081 27.0783 17.6426 26.5296 16.8214C25.9809 16.0002 25.2009 15.3602 24.2885 14.9822C23.376 14.6042 22.3719 14.5054 21.4033 14.698C20.4346 14.8907 19.5448 15.3663 18.8464 16.0647C18.148 16.7631 17.6724 17.6529 17.4798 18.6216C17.2871 19.5903 17.386 20.5943 17.764 21.5068C18.1419 22.4193 18.782 23.1992 19.6032 23.7479C20.4244 24.2966 21.3899 24.5894 22.3776 24.5894C23.7015 24.588 24.9709 24.0614 25.9071 23.1252C26.8433 22.1891 27.3699 20.9197 27.3714 19.5958H27.3712ZM31.3982 20.3828C31.5475 20.8055 31.7168 21.2846 31.6033 21.7679C31.4886 22.2571 31.122 22.6042 30.7985 22.9106C30.5902 23.1079 30.3933 23.2944 30.3042 23.4763C30.214 23.6602 30.1889 23.931 30.1623 24.2178C30.1221 24.6514 30.0764 25.1431 29.7716 25.523C29.484 25.8816 29.0508 26.0352 28.6551 26.1628L31.3962 30.9701C31.4391 31.0452 31.4594 31.1311 31.4546 31.2174C31.4497 31.3038 31.42 31.3869 31.3691 31.4567C31.3181 31.5266 31.248 31.5802 31.1672 31.6111C31.0864 31.6421 30.9985 31.649 30.9139 31.631L28.3922 31.0971L27.5673 33.5391C27.5397 33.621 27.4889 33.6931 27.4212 33.7468C27.3535 33.8005 27.2717 33.8335 27.1857 33.8418C27.1712 33.8432 27.1568 33.8439 27.1425 33.8439C27.0634 33.8439 26.9857 33.8229 26.9174 33.7832C26.849 33.7434 26.7923 33.6863 26.7532 33.6176L23.822 28.4762C23.7882 28.4977 23.7542 28.5195 23.72 28.5416C23.3344 28.7902 22.8973 29.0719 22.3775 29.0719C21.8577 29.0719 21.4208 28.7902 21.0351 28.5416C21.0008 28.5195 20.9668 28.4977 20.9331 28.4762L18.0019 33.6171C17.9627 33.6858 17.9061 33.7429 17.8377 33.7827C17.7693 33.8224 17.6916 33.8434 17.6126 33.8434C17.5985 33.8434 17.5841 33.8427 17.5694 33.8414C17.4834 33.833 17.4016 33.8 17.3338 33.7463C17.2661 33.6926 17.2154 33.6205 17.1877 33.5386L16.3628 31.0966L13.8412 31.6305C13.7566 31.6485 13.6686 31.6415 13.5879 31.6106C13.5071 31.5797 13.437 31.5261 13.386 31.4562C13.3351 31.3864 13.3054 31.3032 13.3006 31.2169C13.2958 31.1306 13.316 31.0447 13.3589 30.9696L15.2284 27.6906H2.08284C1.62693 27.6901 1.18984 27.5087 0.867476 27.1863C0.545108 26.8639 0.363784 26.4268 0.363281 25.9709V1.8756C0.363858 1.41974 0.545218 0.982721 0.867579 0.660399C1.18994 0.338077 1.62698 0.156771 2.08284 0.15625H26.178C26.6339 0.156771 27.0709 0.338077 27.3933 0.660399C27.7156 0.982721 27.897 1.41974 27.8976 1.8756V12.7115C28.0545 12.8368 28.3108 12.9187 28.5822 13.0054C28.9966 13.1378 29.4662 13.288 29.7716 13.6683C30.0769 14.0487 30.1221 14.5402 30.1623 14.9736C30.1889 15.2604 30.214 15.5312 30.3042 15.7151C30.3933 15.897 30.5901 16.0834 30.7985 16.2807C31.122 16.5871 31.4886 16.9346 31.6033 17.4235C31.7168 17.9068 31.5475 18.3859 31.3982 18.8086C31.2968 19.0957 31.201 19.3668 31.201 19.5955C31.201 19.8243 31.2968 20.0958 31.3982 20.3828ZM11.4421 7.93218L13.785 5.09936C13.827 5.04848 13.8798 5.00752 13.9395 4.97941C13.9992 4.95129 14.0644 4.93671 14.1304 4.93671C14.1964 4.93671 14.2616 4.95129 14.3214 4.97941C14.3811 5.00752 14.4339 5.04848 14.4759 5.09936L16.8187 7.93225V1.05295H11.4421V7.93218ZM15.7399 26.7944L16.0999 26.1629C15.7043 26.0356 15.2711 25.8817 14.9835 25.5231C14.6786 25.1434 14.633 24.6512 14.5928 24.2179C14.5663 23.9312 14.5411 23.6604 14.451 23.4764C14.3617 23.2945 14.1649 23.1081 13.9565 22.9107C13.6331 22.6044 13.2665 22.2572 13.1517 21.7681C13.0383 21.2847 13.2075 20.8056 13.3568 20.3829C13.4583 20.0958 13.5537 19.8247 13.5537 19.5959C13.5537 19.3671 13.458 19.096 13.3568 18.809C13.2075 18.3862 13.0383 17.9071 13.1517 17.4238C13.2665 16.9346 13.6331 16.5871 13.9565 16.2811C14.1649 16.0838 14.3617 15.8973 14.451 15.7154C14.5411 15.5316 14.5663 15.2607 14.5928 14.9739C14.633 14.5403 14.6786 14.0487 14.9835 13.6687C15.2884 13.2887 15.7585 13.1382 16.1728 13.0058C16.4449 12.9188 16.702 12.8367 16.8588 12.7108C17.0156 12.585 17.1512 12.3529 17.2954 12.1066C17.5168 11.7286 17.7677 11.3001 18.2095 11.0833C18.6495 10.8676 19.144 10.9292 19.5806 10.9836C19.8718 11.0198 20.1468 11.0539 20.354 11.0054C20.5575 10.9577 20.7893 10.8085 21.0347 10.6501C21.4203 10.4015 21.8574 10.1198 22.3771 10.1198C22.8968 10.1198 23.3339 10.4016 23.7195 10.6501C23.9649 10.8082 24.1968 10.9577 24.4001 11.0054C24.6077 11.0543 24.8827 11.0195 25.174 10.9836C25.6099 10.9291 26.1048 10.8675 26.5451 11.0833C26.7181 11.1708 26.8728 11.2906 27.0007 11.4363V1.8756C27.0004 1.65746 26.9137 1.44832 26.7595 1.29404C26.6053 1.13976 26.3962 1.05293 26.178 1.05259H17.7154V9.17777C17.7154 9.27005 17.6869 9.36009 17.6339 9.4356C17.5808 9.51111 17.5057 9.5684 17.4189 9.59965C17.3321 9.6309 17.2377 9.63459 17.1487 9.61021C17.0597 9.58584 16.9804 9.53458 16.9216 9.46344L14.1302 6.08845L11.3388 9.46344C11.28 9.53454 11.2007 9.58576 11.1117 9.61011C11.0227 9.63447 10.9283 9.63077 10.8415 9.59952C10.7547 9.56828 10.6796 9.51101 10.6266 9.43553C10.5735 9.36005 10.545 9.27003 10.545 9.17777V1.05295H2.08284C1.86472 1.05321 1.65559 1.13995 1.50133 1.29417C1.34706 1.44838 1.26024 1.65747 1.25991 1.8756V25.9709C1.26013 26.1891 1.34686 26.3982 1.50108 26.5525C1.6553 26.7068 1.86441 26.7937 2.08256 26.794L15.7399 26.7944ZM20.08 28.1628C19.9129 28.1693 19.7463 28.1844 19.5807 28.2081C19.1444 28.2625 18.6498 28.3241 18.2096 28.1084C17.7676 27.8916 17.5167 27.4632 17.2956 27.0851C17.1703 26.8711 17.051 26.6676 16.9194 26.5357L16.3947 27.4559V27.4563L14.6329 30.5464L16.5675 30.1369C16.675 30.1142 16.787 30.1318 16.8824 30.1862C16.9778 30.2406 17.0499 30.3281 17.0851 30.4322L17.7179 32.3058L20.08 28.1628ZM30.123 30.5464L27.8361 26.5355C27.8164 26.5552 27.7971 26.5767 27.7779 26.5993C27.6944 26.8095 27.5706 27.0013 27.4135 27.164C27.2025 27.5212 26.9571 27.9064 26.5455 28.1083C26.1056 28.3241 25.611 28.2623 25.1745 28.208C25.0089 28.1843 24.8423 28.1691 24.6752 28.1626L27.0377 32.3054L27.6705 30.4318C27.7057 30.3278 27.7778 30.2402 27.8732 30.1858C27.9686 30.1313 28.0807 30.1138 28.1881 30.1365L30.123 30.5464ZM30.3047 19.5957C30.3047 19.2132 30.4309 18.8558 30.5531 18.5101C30.6719 18.1738 30.7841 17.8562 30.7307 17.6283C30.6772 17.4005 30.4369 17.173 30.1823 16.9322C29.9254 16.689 29.6598 16.4374 29.4994 16.1104C29.3367 15.7786 29.3026 15.4117 29.2697 15.0569C29.2384 14.719 29.2088 14.3999 29.0725 14.23C28.9362 14.0601 28.6319 13.9628 28.3095 13.86C27.9715 13.752 27.6219 13.6402 27.3354 13.41C27.2567 13.3462 27.1837 13.2756 27.1174 13.1991C27.1104 13.191 27.1029 13.1827 27.0963 13.174C26.9421 12.9816 26.8048 12.7761 26.686 12.5599C26.5133 12.265 26.3502 11.9865 26.1507 11.8887C25.9511 11.7908 25.6276 11.8309 25.2853 11.8736C24.9286 11.918 24.5597 11.964 24.1959 11.8787C23.8417 11.7955 23.5329 11.5964 23.2342 11.4039C22.9253 11.2048 22.6335 11.0167 22.3776 11.0167C22.1218 11.0167 21.83 11.2048 21.5211 11.4039C21.2225 11.5964 20.9136 11.7955 20.5594 11.8787C20.1955 11.9638 19.8267 11.9179 19.4696 11.8736C19.1274 11.8309 18.8042 11.7907 18.6044 11.8887C18.4046 11.9866 18.2416 12.265 18.069 12.5599C17.89 12.8655 17.705 13.1815 17.4198 13.4107C17.1332 13.6407 16.7836 13.7525 16.4455 13.8607C16.1233 13.9637 15.8188 14.061 15.6826 14.2307C15.5464 14.4004 15.5167 14.7197 15.4854 15.0575C15.4525 15.4124 15.4185 15.7793 15.2558 16.1111C15.0954 16.4381 14.8297 16.6897 14.5729 16.933C14.3183 17.1741 14.0778 17.4017 14.0244 17.629C13.9711 17.8564 14.0833 18.1745 14.2022 18.5108C14.3243 18.8565 14.4505 19.2139 14.4505 19.5964C14.4505 19.9789 14.3243 20.3364 14.2021 20.6819C14.0833 21.0184 13.9711 21.3359 14.0244 21.5637C14.0778 21.7916 14.3183 22.0191 14.5729 22.2598C14.8298 22.5031 15.0954 22.7548 15.2558 23.0817C15.4185 23.4136 15.4526 23.7804 15.4855 24.1353C15.5168 24.4731 15.5464 24.7922 15.6827 24.9621C15.819 25.132 16.1233 25.2293 16.4456 25.3321C16.6095 25.3844 16.776 25.438 16.9369 25.5052L16.9379 25.5056C17.1108 25.5745 17.273 25.6675 17.4198 25.7818C17.7051 26.0107 17.8901 26.3267 18.069 26.6326C18.2417 26.9274 18.4048 27.206 18.6044 27.3038C18.804 27.4017 19.1275 27.3617 19.4697 27.3189C19.6819 27.2881 19.8958 27.2704 20.1102 27.2659C20.2612 27.2645 20.4118 27.2806 20.5591 27.3138C20.9133 27.397 21.2221 27.5961 21.5207 27.7886C21.8297 27.9877 22.1216 28.1758 22.3774 28.1758C22.6332 28.1758 22.9251 27.9877 23.2341 27.7885C23.5327 27.5961 23.8414 27.397 24.1956 27.3139C24.5594 27.2285 24.9284 27.2744 25.2855 27.3189C25.6276 27.3616 25.9509 27.4018 26.1507 27.3038C26.3504 27.2059 26.5134 26.9275 26.6861 26.6326C26.7858 26.4549 26.896 26.2832 27.016 26.1186C27.021 26.1115 27.0263 26.1045 27.0316 26.0979C27.12 25.981 27.2219 25.8749 27.3353 25.7821C27.6218 25.5521 27.9714 25.4403 28.3095 25.3321C28.6318 25.2291 28.9362 25.1318 29.0724 24.9621C29.2086 24.7923 29.2383 24.4731 29.2697 24.1353C29.3026 23.7804 29.3366 23.4135 29.4994 23.0817C29.6597 22.7548 29.9253 22.5031 30.1823 22.2598C30.4368 22.0187 30.6772 21.791 30.7307 21.5637C30.7841 21.3365 30.6719 21.0184 30.5531 20.6819C30.4307 20.3358 30.3045 19.9784 30.3045 19.5958L30.3047 19.5957ZM25.9854 18.7429C26.0117 18.8238 26.0145 18.9106 25.9933 18.993C25.9721 19.0754 25.928 19.1502 25.8659 19.2084L24.4089 20.5749L24.7844 22.5366C24.8004 22.6202 24.7922 22.7067 24.7609 22.7858C24.7296 22.865 24.6764 22.9336 24.6076 22.9836C24.5387 23.0336 24.457 23.063 24.3721 23.0683C24.2871 23.0736 24.2024 23.0546 24.1279 23.0136L22.3779 22.0503L20.628 23.0136C20.5534 23.0546 20.4687 23.0736 20.3838 23.0683C20.2988 23.0629 20.2172 23.0336 20.1483 22.9835C20.0795 22.9335 20.0263 22.8649 19.995 22.7858C19.9636 22.7067 19.9555 22.6202 19.9715 22.5366L20.347 20.5749L18.8896 19.2085C18.8275 19.1503 18.7833 19.0756 18.7621 18.9932C18.7409 18.9107 18.7436 18.824 18.7699 18.743C18.7962 18.662 18.845 18.5902 18.9106 18.536C18.9762 18.4818 19.0559 18.4473 19.1404 18.4367L21.1223 18.1876L21.9718 16.3797C22.008 16.3026 22.0653 16.2375 22.1372 16.1918C22.209 16.1462 22.2924 16.1219 22.3775 16.1219C22.4627 16.1219 22.546 16.1462 22.6179 16.1918C22.6897 16.2375 22.7471 16.3026 22.7833 16.3797L23.6327 18.1876L25.6147 18.4367C25.6991 18.4473 25.7788 18.4818 25.8444 18.536C25.91 18.5903 25.9588 18.6621 25.9852 18.743L25.9854 18.7429ZM24.5564 19.2069L23.2763 19.0461C23.2013 19.0366 23.1299 19.0084 23.0687 18.9639C23.0075 18.9195 22.9586 18.8603 22.9264 18.7919L22.378 17.6241L21.8295 18.7919C21.7974 18.8603 21.7485 18.9195 21.6873 18.964C21.6262 19.0084 21.5548 19.0366 21.4797 19.0461L20.1989 19.2076L21.14 20.0903C21.1951 20.142 21.2363 20.2068 21.2597 20.2788C21.283 20.3507 21.2878 20.4273 21.2736 20.5016L21.0311 21.7688L22.1613 21.1465C22.2275 21.11 22.3019 21.0909 22.3775 21.0909C22.4531 21.0909 22.5275 21.11 22.5937 21.1465L23.724 21.7688L23.4815 20.5014C23.4672 20.4271 23.472 20.3505 23.4954 20.2785C23.5188 20.2066 23.5599 20.1418 23.6151 20.0901L24.5564 19.2069Z" fill="#20A1DC"/>
</svg>
