<svg width="431" height="192" viewBox="0 0 431 192" fill="none" xmlns="http://www.w3.org/2000/svg">
<path d="M175.968 51V11.58H180.828V28.482H186.66L195.408 11.58H200.7L190.926 30.534L201.24 51H195.678L186.498 32.748H180.828V51H175.968ZM208.347 51V11.58H213.207V21.3V26.97H214.233L213.207 28.104C213.207 25.764 213.909 23.964 215.313 22.704C216.717 21.408 218.661 20.76 221.145 20.76C224.133 20.76 226.509 21.678 228.273 23.514C230.037 25.35 230.919 27.852 230.919 31.02V51H226.059V31.56C226.059 29.436 225.483 27.798 224.331 26.646C223.215 25.458 221.685 24.864 219.741 24.864C217.725 24.864 216.123 25.494 214.935 26.754C213.783 28.014 213.207 29.796 213.207 32.1V51H208.347ZM249.366 51.54C246.234 51.54 243.768 50.748 241.968 49.164C240.168 47.544 239.268 45.366 239.268 42.63C239.268 39.858 240.168 37.68 241.968 36.096C243.768 34.512 246.198 33.72 249.258 33.72H258.438V30.75C258.438 28.914 257.88 27.51 256.764 26.538C255.684 25.53 254.136 25.026 252.12 25.026C250.356 25.026 248.88 25.404 247.692 26.16C246.504 26.88 245.82 27.87 245.64 29.13H240.78C241.104 26.574 242.31 24.54 244.398 23.028C246.486 21.516 249.096 20.76 252.228 20.76C255.648 20.76 258.348 21.642 260.328 23.406C262.308 25.17 263.298 27.564 263.298 30.588V51H258.546V45.33H257.736L258.546 44.52C258.546 46.68 257.7 48.39 256.008 49.65C254.352 50.91 252.138 51.54 249.366 51.54ZM250.554 47.706C252.858 47.706 254.748 47.13 256.224 45.978C257.7 44.826 258.438 43.35 258.438 41.55V37.338H249.366C247.746 37.338 246.468 37.788 245.532 38.688C244.596 39.588 244.128 40.812 244.128 42.36C244.128 44.016 244.686 45.33 245.802 46.302C246.954 47.238 248.538 47.706 250.554 47.706ZM287.577 51C285.021 51 283.023 50.316 281.583 48.948C280.179 47.58 279.477 45.654 279.477 43.17V25.728H271.107V21.3H279.477V12.93H284.337V21.3H296.217V25.728H284.337V43.17C284.337 45.438 285.417 46.572 287.577 46.572H295.677V51H287.577ZM306.51 51V21.3H311.262V26.97H312.396L310.83 30.48C310.83 27.276 311.514 24.864 312.882 23.244C314.286 21.588 316.356 20.76 319.092 20.76C322.224 20.76 324.708 21.75 326.544 23.73C328.416 25.674 329.352 28.32 329.352 31.668V33.45H324.492V32.1C324.492 29.76 323.916 27.978 322.764 26.754C321.648 25.494 320.046 24.864 317.958 24.864C315.906 24.864 314.286 25.494 313.098 26.754C311.946 28.014 311.37 29.796 311.37 32.1V51H306.51ZM337.485 51V46.572H348.015V25.728H338.835V21.3H352.875V46.572H362.865V51H337.485ZM349.905 15.954C348.717 15.954 347.781 15.648 347.097 15.036C346.413 14.424 346.071 13.596 346.071 12.552C346.071 11.472 346.413 10.626 347.097 10.014C347.781 9.366 348.717 9.042 349.905 9.042C351.093 9.042 352.029 9.366 352.713 10.014C353.397 10.626 353.739 11.472 353.739 12.552C353.739 13.596 353.397 14.424 352.713 15.036C352.029 15.648 351.093 15.954 349.905 15.954ZM176.022 115V75.58H187.2C190.8 75.58 193.608 76.48 195.624 78.28C197.676 80.08 198.702 82.582 198.702 85.786C198.702 87.586 198.324 89.152 197.568 90.484C196.812 91.816 195.732 92.842 194.328 93.562C192.96 94.282 191.304 94.624 189.36 94.588V93.778C191.448 93.742 193.248 94.138 194.76 94.966C196.308 95.794 197.496 96.982 198.324 98.53C199.188 100.078 199.62 101.914 199.62 104.038C199.62 106.27 199.152 108.214 198.216 109.87C197.28 111.526 195.948 112.804 194.22 113.704C192.492 114.568 190.422 115 188.01 115H176.022ZM180.774 110.626H187.47C189.738 110.626 191.52 110.032 192.816 108.844C194.148 107.62 194.814 105.964 194.814 103.876C194.814 101.716 194.148 99.97 192.816 98.638C191.52 97.27 189.738 96.586 187.47 96.586H180.774V110.626ZM180.774 92.374H187.146C189.234 92.374 190.872 91.816 192.06 90.7C193.284 89.584 193.896 88.072 193.896 86.164C193.896 84.256 193.302 82.744 192.114 81.628C190.926 80.512 189.288 79.954 187.2 79.954H180.774V92.374ZM209.373 115V85.3H214.125V90.97H215.259L213.693 94.48C213.693 91.276 214.377 88.864 215.745 87.244C217.149 85.588 219.219 84.76 221.955 84.76C225.087 84.76 227.571 85.75 229.407 87.73C231.279 89.674 232.215 92.32 232.215 95.668V97.45H227.355V96.1C227.355 93.76 226.779 91.978 225.627 90.754C224.511 89.494 222.909 88.864 220.821 88.864C218.769 88.864 217.149 89.494 215.961 90.754C214.809 92.014 214.233 93.796 214.233 96.1V115H209.373ZM251.958 115.432C249.582 115.432 247.53 114.982 245.802 114.082C244.074 113.182 242.724 111.886 241.752 110.194C240.816 108.466 240.348 106.432 240.348 104.092V96.208C240.348 93.832 240.816 91.798 241.752 90.106C242.724 88.414 244.074 87.118 245.802 86.218C247.53 85.318 249.582 84.868 251.958 84.868C254.334 84.868 256.386 85.318 258.114 86.218C259.842 87.118 261.174 88.414 262.11 90.106C263.082 91.798 263.568 93.814 263.568 96.154V104.092C263.568 106.432 263.082 108.466 262.11 110.194C261.174 111.886 259.842 113.182 258.114 114.082C256.386 114.982 254.334 115.432 251.958 115.432ZM251.958 111.112C254.082 111.112 255.738 110.518 256.926 109.33C258.114 108.142 258.708 106.396 258.708 104.092V96.208C258.708 93.904 258.114 92.158 256.926 90.97C255.738 89.782 254.082 89.188 251.958 89.188C249.87 89.188 248.214 89.782 246.99 90.97C245.802 92.158 245.208 93.904 245.208 96.208V104.092C245.208 106.396 245.802 108.142 246.99 109.33C248.214 110.518 249.87 111.112 251.958 111.112ZM287.577 115C285.021 115 283.023 114.316 281.583 112.948C280.179 111.58 279.477 109.654 279.477 107.17V89.728H271.107V85.3H279.477V76.93H284.337V85.3H296.217V89.728H284.337V107.17C284.337 109.438 285.417 110.572 287.577 110.572H295.677V115H287.577ZM305.484 115V75.58H310.344V85.3V90.97H311.37L310.344 92.104C310.344 89.764 311.046 87.964 312.45 86.704C313.854 85.408 315.798 84.76 318.282 84.76C321.27 84.76 323.646 85.678 325.41 87.514C327.174 89.35 328.056 91.852 328.056 95.02V115H323.196V95.56C323.196 93.436 322.62 91.798 321.468 90.646C320.352 89.458 318.822 88.864 316.878 88.864C314.862 88.864 313.26 89.494 312.072 90.754C310.92 92.014 310.344 93.796 310.344 96.1V115H305.484ZM349.095 115.54C346.755 115.54 344.703 115.072 342.939 114.136C341.211 113.2 339.861 111.886 338.889 110.194C337.953 108.466 337.485 106.468 337.485 104.2V96.1C337.485 93.796 337.953 91.798 338.889 90.106C339.861 88.414 341.211 87.1 342.939 86.164C344.703 85.228 346.755 84.76 349.095 84.76C351.435 84.76 353.469 85.228 355.197 86.164C356.961 87.1 358.311 88.414 359.247 90.106C360.219 91.798 360.705 93.796 360.705 96.1V101.338H342.237V104.2C342.237 106.54 342.831 108.34 344.019 109.6C345.207 110.824 346.899 111.436 349.095 111.436C350.967 111.436 352.479 111.112 353.631 110.464C354.783 109.78 355.485 108.772 355.737 107.44H360.597C360.273 109.924 359.049 111.904 356.925 113.38C354.837 114.82 352.227 115.54 349.095 115.54ZM355.953 98.098V96.1C355.953 93.76 355.359 91.96 354.171 90.7C353.019 89.44 351.327 88.81 349.095 88.81C346.899 88.81 345.207 89.44 344.019 90.7C342.831 91.96 342.237 93.76 342.237 96.1V97.666H356.331L355.953 98.098ZM371.267 115V85.3H376.019V90.97H377.153L375.587 94.48C375.587 91.276 376.271 88.864 377.639 87.244C379.043 85.588 381.113 84.76 383.849 84.76C386.981 84.76 389.465 85.75 391.301 87.73C393.173 89.674 394.109 92.32 394.109 95.668V97.45H389.249V96.1C389.249 93.76 388.673 91.978 387.521 90.754C386.405 89.494 384.803 88.864 382.715 88.864C380.663 88.864 379.043 89.494 377.855 90.754C376.703 92.014 376.127 93.796 376.127 96.1V115H371.267ZM412.934 115.432C410.918 115.432 409.154 115.126 407.642 114.514C406.166 113.866 404.978 112.966 404.078 111.814C403.214 110.662 402.692 109.294 402.512 107.71H407.372C407.588 108.754 408.164 109.582 409.1 110.194C410.072 110.806 411.35 111.112 412.934 111.112H415.202C417.11 111.112 418.532 110.734 419.468 109.978C420.404 109.186 420.872 108.142 420.872 106.846C420.872 105.586 420.44 104.596 419.576 103.876C418.748 103.12 417.506 102.616 415.85 102.364L411.854 101.716C408.938 101.212 406.76 100.312 405.32 99.016C403.916 97.684 403.214 95.758 403.214 93.238C403.214 90.574 404.06 88.522 405.752 87.082C407.444 85.606 409.982 84.868 413.366 84.868H415.418C418.262 84.868 420.548 85.534 422.276 86.866C424.004 88.198 425.048 89.998 425.408 92.266H420.548C420.332 91.33 419.792 90.592 418.928 90.052C418.064 89.476 416.894 89.188 415.418 89.188H413.366C411.53 89.188 410.18 89.53 409.316 90.214C408.488 90.898 408.074 91.924 408.074 93.292C408.074 94.516 408.434 95.416 409.154 95.992C409.874 96.568 411.008 96.982 412.556 97.234L416.552 97.882C419.756 98.386 422.078 99.322 423.518 100.69C424.994 102.058 425.732 104.038 425.732 106.63C425.732 109.366 424.85 111.526 423.086 113.11C421.358 114.658 418.73 115.432 415.202 115.432H412.934ZM173.7 179L183.96 139.58H190.494L200.7 179H195.786L193.194 168.524H181.26L178.668 179H173.7ZM182.232 164.42H192.168L189.144 152.27C188.568 149.966 188.118 148.04 187.794 146.492C187.47 144.944 187.272 143.936 187.2 143.468C187.128 143.936 186.93 144.944 186.606 146.492C186.282 148.04 185.832 149.948 185.256 152.216L182.232 164.42ZM219.795 179.54C217.419 179.54 215.331 179.09 213.531 178.19C211.767 177.29 210.399 175.994 209.427 174.302C208.455 172.574 207.969 170.54 207.969 168.2V160.1C207.969 157.724 208.455 155.69 209.427 153.998C210.399 152.306 211.767 151.01 213.531 150.11C215.331 149.21 217.419 148.76 219.795 148.76C223.215 148.76 225.969 149.678 228.057 151.514C230.145 153.35 231.243 155.852 231.351 159.02H226.491C226.383 157.112 225.735 155.654 224.547 154.646C223.395 153.602 221.811 153.08 219.795 153.08C217.671 153.08 215.979 153.692 214.719 154.916C213.459 156.104 212.829 157.814 212.829 160.046V168.2C212.829 170.432 213.459 172.16 214.719 173.384C215.979 174.608 217.671 175.22 219.795 175.22C221.811 175.22 223.395 174.698 224.547 173.654C225.735 172.61 226.383 171.152 226.491 169.28H231.351C231.243 172.448 230.145 174.95 228.057 176.786C225.969 178.622 223.215 179.54 219.795 179.54ZM249.366 179.54C246.234 179.54 243.768 178.748 241.968 177.164C240.168 175.544 239.268 173.366 239.268 170.63C239.268 167.858 240.168 165.68 241.968 164.096C243.768 162.512 246.198 161.72 249.258 161.72H258.438V158.75C258.438 156.914 257.88 155.51 256.764 154.538C255.684 153.53 254.136 153.026 252.12 153.026C250.356 153.026 248.88 153.404 247.692 154.16C246.504 154.88 245.82 155.87 245.64 157.13H240.78C241.104 154.574 242.31 152.54 244.398 151.028C246.486 149.516 249.096 148.76 252.228 148.76C255.648 148.76 258.348 149.642 260.328 151.406C262.308 153.17 263.298 155.564 263.298 158.588V179H258.546V173.33H257.736L258.546 172.52C258.546 174.68 257.7 176.39 256.008 177.65C254.352 178.91 252.138 179.54 249.366 179.54ZM250.554 175.706C252.858 175.706 254.748 175.13 256.224 173.978C257.7 172.826 258.438 171.35 258.438 169.55V165.338H249.366C247.746 165.338 246.468 165.788 245.532 166.688C244.596 167.588 244.128 168.812 244.128 170.36C244.128 172.016 244.686 173.33 245.802 174.302C246.954 175.238 248.538 175.706 250.554 175.706ZM282.609 179.54C279.657 179.54 277.263 178.55 275.427 176.57C273.627 174.59 272.727 171.908 272.727 168.524V159.83C272.727 156.41 273.627 153.71 275.427 151.73C277.227 149.75 279.621 148.76 282.609 148.76C285.057 148.76 287.019 149.426 288.495 150.758C289.971 152.09 290.709 153.872 290.709 156.104L289.737 154.97H290.817L290.709 148.22V139.58H295.569V179H290.709V173.33H289.737L290.709 172.196C290.709 174.464 289.971 176.264 288.495 177.596C287.019 178.892 285.057 179.54 282.609 179.54ZM284.229 175.328C286.245 175.328 287.829 174.698 288.981 173.438C290.133 172.178 290.709 170.432 290.709 168.2V160.1C290.709 157.868 290.133 156.122 288.981 154.862C287.829 153.602 286.245 152.972 284.229 152.972C282.177 152.972 280.557 153.584 279.369 154.808C278.181 156.032 277.587 157.796 277.587 160.1V168.2C277.587 170.504 278.181 172.268 279.369 173.492C280.557 174.716 282.177 175.328 284.229 175.328ZM316.716 179.54C314.376 179.54 312.324 179.072 310.56 178.136C308.832 177.2 307.482 175.886 306.51 174.194C305.574 172.466 305.106 170.468 305.106 168.2V160.1C305.106 157.796 305.574 155.798 306.51 154.106C307.482 152.414 308.832 151.1 310.56 150.164C312.324 149.228 314.376 148.76 316.716 148.76C319.056 148.76 321.09 149.228 322.818 150.164C324.582 151.1 325.932 152.414 326.868 154.106C327.84 155.798 328.326 157.796 328.326 160.1V165.338H309.858V168.2C309.858 170.54 310.452 172.34 311.64 173.6C312.828 174.824 314.52 175.436 316.716 175.436C318.588 175.436 320.1 175.112 321.252 174.464C322.404 173.78 323.106 172.772 323.358 171.44H328.218C327.894 173.924 326.67 175.904 324.546 177.38C322.458 178.82 319.848 179.54 316.716 179.54ZM323.574 162.098V160.1C323.574 157.76 322.98 155.96 321.792 154.7C320.64 153.44 318.948 152.81 316.716 152.81C314.52 152.81 312.828 153.44 311.64 154.7C310.452 155.96 309.858 157.76 309.858 160.1V161.666H323.952L323.574 162.098ZM336.459 179V149.3H340.725V152.864H341.697L340.941 154.16C340.941 152.504 341.373 151.19 342.237 150.218C343.137 149.246 344.343 148.76 345.855 148.76C347.511 148.76 348.789 149.372 349.689 150.596C350.589 151.82 351.039 153.548 351.039 155.78L349.581 152.864H351.849L350.823 154.16C350.823 152.504 351.273 151.19 352.173 150.218C353.109 149.246 354.333 148.76 355.845 148.76C357.717 148.76 359.157 149.462 360.165 150.866C361.209 152.27 361.731 154.124 361.731 156.428V179H357.249V156.374C357.249 155.15 356.979 154.196 356.439 153.512C355.935 152.828 355.179 152.486 354.171 152.486C353.199 152.486 352.425 152.828 351.849 153.512C351.309 154.16 351.039 155.096 351.039 156.32V179H347.151V156.374C347.151 155.114 346.863 154.16 346.287 153.512C345.747 152.828 344.973 152.486 343.965 152.486C342.957 152.486 342.201 152.828 341.697 153.512C341.193 154.16 340.941 155.096 340.941 156.32V179H336.459ZM374.885 188.72L379.259 177.164L368.243 149.3H373.643L380.555 167.66C380.807 168.272 381.041 169.01 381.257 169.874C381.473 170.702 381.653 171.404 381.797 171.98C381.941 171.404 382.121 170.702 382.337 169.874C382.553 169.01 382.769 168.272 382.985 167.66L389.465 149.3H394.703L380.069 188.72H374.885Z" fill="#424242"/>
<path d="M30.9724 170.131C30.8162 170.058 30.6704 169.98 30.5246 169.897C30.4674 169.865 30.4153 169.834 30.358 169.798C30.2799 169.751 30.1966 169.699 30.1238 169.652C30.0509 169.605 29.978 169.553 29.9051 169.501C29.8582 169.464 29.8062 169.428 29.7593 169.392C29.676 169.329 29.5927 169.267 29.5146 169.199C29.473 169.162 29.4365 169.126 29.3949 169.095C29.2855 168.996 29.1762 168.892 29.0669 168.782C29.02 168.73 28.968 168.678 28.9211 168.626C28.8742 168.574 28.8222 168.517 28.7753 168.46C28.6868 168.355 28.6035 168.251 28.5202 168.142C28.4213 168.007 28.3276 167.866 28.2391 167.72C28.2287 167.71 28.2235 167.694 28.213 167.684C28.1297 167.548 28.0516 167.403 27.9735 167.257C27.9631 167.236 27.9475 167.215 27.9371 167.194C27.8642 167.049 27.7965 166.898 27.7288 166.742C27.7028 166.674 27.6716 166.601 27.6455 166.533C27.6143 166.455 27.5831 166.372 27.5518 166.289C27.5154 166.19 27.4789 166.091 27.4477 165.992C27.4321 165.945 27.4165 165.893 27.4009 165.841C27.3644 165.721 27.328 165.596 27.2915 165.476C27.2915 165.466 27.2863 165.45 27.2811 165.44C27.2238 165.226 27.1718 165.003 27.1301 164.779C27.1197 164.716 27.1041 164.659 27.0937 164.596C27.0729 164.492 27.0572 164.393 27.0416 164.289C27.0156 164.138 26.9948 163.987 26.9739 163.831C26.9479 163.607 26.9271 163.378 26.9063 163.144C26.9063 163.139 26.9063 163.134 26.9063 163.123C26.8906 162.889 26.875 162.644 26.8698 162.399V162.389C26.8542 161.926 26.8438 161.441 26.8334 160.936C26.8334 160.926 26.8334 160.916 26.8334 160.905C26.8073 159.786 26.7969 158.578 26.7865 157.282C26.7865 157.183 26.7865 157.084 26.7865 156.985V156.751C21.3771 153.356 16.5353 149.108 12.3181 144.052L12.2869 144.016C11.9329 143.573 11.5893 143.136 11.2561 142.683V156.626C11.2561 156.699 11.2561 156.771 11.2561 156.844C11.2561 157.053 11.2561 157.261 11.2561 157.469C11.2561 157.542 11.2561 157.61 11.2561 157.683C11.2561 158.219 11.2456 158.734 11.2404 159.239C11.2404 159.302 11.2404 159.364 11.2404 159.432C11.2404 159.63 11.2352 159.817 11.23 160.005C11.23 160.067 11.23 160.129 11.2248 160.192C11.2196 160.442 11.2144 160.692 11.2144 160.931C11.204 161.436 11.1884 161.92 11.1728 162.389C11.1571 162.889 11.1207 163.373 11.0634 163.831C11.0426 163.987 11.0218 164.144 10.9957 164.295C10.9801 164.393 10.9645 164.482 10.9489 164.576C10.9333 164.649 10.9229 164.721 10.9072 164.794C10.8604 165.008 10.8135 165.221 10.7615 165.424C10.7563 165.44 10.751 165.461 10.751 165.471C10.7146 165.601 10.6782 165.726 10.6417 165.851C10.6313 165.893 10.6157 165.935 10.6053 165.976C10.5688 166.086 10.5324 166.2 10.4907 166.309C10.4699 166.367 10.4491 166.419 10.4283 166.476C10.3918 166.575 10.3502 166.674 10.3085 166.768C10.2825 166.835 10.2512 166.898 10.2252 166.96C10.1888 167.043 10.1523 167.122 10.1159 167.2C9.94407 167.538 9.75143 167.856 9.53277 168.152C9.44947 168.262 9.36617 168.371 9.27766 168.475C9.2308 168.527 9.18395 168.579 9.13709 168.637C9.08502 168.694 9.03296 168.746 8.97569 168.803C8.88198 168.902 8.78306 168.991 8.68414 169.084C8.63728 169.126 8.58522 169.173 8.53836 169.215C8.45506 169.282 8.37176 169.35 8.28846 169.412C8.2416 169.444 8.19995 169.48 8.15309 169.511C8.08021 169.569 8.00211 169.621 7.91881 169.673C7.85113 169.72 7.78345 169.761 7.71056 169.803C7.64288 169.844 7.5804 169.886 7.51272 169.923C7.39297 169.99 7.26802 170.058 7.13786 170.12C7.11704 170.131 7.09621 170.146 7.07018 170.157C5.71133 170.808 3.74334 171.136 1.1558 171.141H0V172.213H38.0217V171.141H36.9492C34.3305 171.115 32.3364 170.787 30.9724 170.131Z" fill="#960256"/>
<path d="M68.4683 163.045C58.4149 163.414 48.6843 161.832 39.2869 158.297C35.7726 156.974 32.4666 155.334 29.3532 153.361C28.4786 152.809 27.6195 152.226 26.7761 151.617C22.5954 148.613 18.8052 144.974 15.4055 140.699C13.8332 138.695 12.4483 136.555 11.2457 134.285C10.2669 132.432 9.40784 130.49 8.66854 128.454C8.38219 127.663 8.11147 126.856 7.86156 126.033C6.18513 120.546 5.48748 115.095 5.76862 109.696C6.02373 104.729 6.99211 99.9182 8.66854 95.2585V90.4375C8.06982 91.6558 7.52315 92.9105 7.02334 94.2017C4.97726 99.5069 3.8579 104.953 3.67048 110.539C3.48826 116.125 4.27962 121.67 6.04456 127.158C6.76303 129.376 7.63248 131.526 8.66854 133.608C9.43908 135.16 10.2981 136.67 11.2457 138.143C12.1724 139.59 13.1876 141.001 14.2862 142.376C17.9826 146.812 22.1477 150.576 26.7761 153.663C27.6195 154.225 28.4786 154.767 29.3532 155.282C32.1334 156.933 35.075 158.354 38.1675 159.546C47.5701 163.175 57.5767 165.086 68.1924 165.273C72.5865 165.273 76.9702 165.002 81.3435 164.461C80.5626 163.597 79.7973 162.717 79.0528 161.821C75.5749 162.54 72.0503 162.946 68.4683 163.045Z" fill="#960256"/>
<path d="M34.9552 13.3529C37.0012 14.4722 38.4434 16.0549 39.2816 18.101C40.1198 20.1523 40.5832 22.6618 40.6769 25.6398C40.7706 28.623 40.8175 32.0644 40.8175 35.9743V65.2963C36.7409 66.2178 32.9195 67.6027 29.3532 69.4457V74.1158C47.4763 64.6715 67.8487 70.2319 75.7831 83.5236C82.8377 95.3472 77.6209 109.201 75.8456 113.189L76.5068 113.804C79.8232 112.413 82.3535 110.206 84.108 107.186C87.086 101.975 88.4345 96.9507 88.1585 92.1036C87.8774 87.2618 86.5758 82.9353 84.2486 79.1139C82.2077 75.7766 79.5577 72.9288 76.3037 70.5807C76.3037 70.5807 76.2985 70.5755 76.2829 70.5651C76.2725 70.5547 76.2465 70.5391 76.2204 70.5182C76.1944 70.4974 76.158 70.4714 76.1163 70.4454C76.059 70.4037 75.9914 70.3568 75.9081 70.2996C75.9028 70.2944 75.8924 70.2892 75.882 70.284C75.5592 70.0549 75.226 69.8362 74.8928 69.6228C72.1543 67.863 69.3273 66.5823 66.4065 65.7857C66.3805 65.7753 66.3545 65.7701 66.3284 65.7597C65.183 65.364 63.9387 64.9787 62.6007 64.6247C60.6015 64.0936 58.3992 63.6199 55.9887 63.2606V11.9576H81.0311C86.43 11.9576 91.1261 12.8426 95.135 14.6128C99.1386 16.3829 102.398 18.8039 104.912 21.8756C107.427 24.9473 109.333 28.4408 110.639 32.3507C111.936 36.2607 112.592 40.1706 112.592 44.0806C112.592 49.2921 111.613 54.2277 109.661 58.8821C107.703 63.5418 104.866 67.358 101.143 70.3308C98.3525 72.5695 95.6036 73.8243 92.9015 74.1002C90.1994 74.3761 88.3668 74.7093 84.8317 75.079L86.5081 76.7554C89.1113 76.3858 90.3868 76.4743 92.9015 77.0313C95.4161 77.5936 97.6913 78.3381 99.7426 79.2701C102.908 80.7591 105.792 82.7583 108.401 85.2729C111.004 87.7928 113.289 90.6771 115.242 93.9363C117.199 97.1902 118.688 100.637 119.714 104.266C120.734 107.894 121.25 111.482 121.25 115.017C121.062 122.462 119.48 129.115 116.502 134.983C113.524 140.85 109.609 145.786 104.772 149.784C102.835 151.383 100.779 152.851 98.6076 154.184C100.081 155.949 101.632 157.703 103.241 159.427C109.192 157.349 114.685 154.736 119.719 151.601C126.883 147.134 132.704 141.824 137.176 135.686C141.643 129.542 143.97 122.654 144.158 115.022C144.34 109.253 143.179 103.948 140.664 99.1061C138.15 94.2643 134.797 90.1252 130.611 86.6787C126.425 83.2373 121.677 80.5352 116.372 78.5776C111.066 76.62 105.621 75.5527 100.034 75.3653C105.621 74.2512 110.645 72.481 115.112 70.0601C119.579 67.6391 123.301 64.8902 126.284 61.8185C129.262 58.7468 131.543 55.5345 133.131 52.1868C134.708 48.8391 135.406 45.58 135.224 42.4145C135.224 38.3172 134.146 34.3135 132.011 30.4036C129.872 26.4936 126.8 23.0522 122.796 20.0742C118.787 17.0962 113.951 14.6701 108.276 12.8114C102.58 10.9371 96.1138 10 88.851 10H21.2729V11.6764H26.0211C29.9258 11.6764 32.9039 12.2387 34.9552 13.3529Z" fill="#960256"/>
<path d="M72.1128 52.2442C70.4467 54.7432 68.4215 57.185 66.0474 59.5643L63.5952 62.2299C64.0534 62.3549 64.5115 62.485 64.9645 62.6204L67.1147 60.2776C69.494 57.664 72.2013 55.0712 75.2365 52.5149C78.2718 49.9586 81.3956 47.6054 84.6079 45.4656C87.8254 43.3258 91.0013 41.6025 94.1563 40.2905C97.3113 38.9837 100.133 38.2705 102.637 38.1507H105.136V37.073H68.1872V38.1455H70.6862C72.9458 38.2652 74.4348 39.0097 75.148 40.3738C75.8613 41.7431 75.955 43.4403 75.4188 45.4604C74.8825 47.4856 73.7788 49.7452 72.1128 52.2442Z" fill="#960256"/>
<path d="M146.016 167.554C144.824 170.053 143.132 171.953 140.93 173.265C138.728 174.572 136.291 175.405 133.61 175.764C130.934 176.118 128.164 176.035 125.311 175.493C122.453 174.957 119.777 174.155 117.278 173.083C112.04 170.698 107.37 167.398 103.267 163.175C103.012 162.91 102.752 162.644 102.502 162.379C101.846 161.691 101.195 160.999 100.56 160.301C99.1023 158.713 97.7018 157.11 96.3533 155.48C95.791 154.803 95.2392 154.127 94.7029 153.445C93.8179 152.325 92.9536 151.195 92.1154 150.055L69.5981 118.469L68.2913 116.636L45.1648 84.1902L55.515 72.9029C55.3223 72.8508 55.1297 72.7987 54.9371 72.7467C54.8277 72.7207 54.7236 72.6946 54.6143 72.6686C54.4373 72.6217 54.2603 72.5853 54.0884 72.5436L26.7865 102.22V75.329V70.8828V53.6707C26.7865 51.1717 26.8125 48.9694 26.875 47.0639C26.9323 45.1636 27.2915 43.5549 27.9475 42.2481C28.5983 40.9413 29.6135 39.9261 30.9828 39.2128C32.3521 38.4995 34.3461 38.1403 36.9597 38.1403H38.0322V37.073H0V38.1455H1.0725C3.69128 38.1455 5.6853 38.4995 7.04935 39.218C8.41862 39.9313 9.43385 40.9413 10.0846 42.2533C10.7406 43.5601 11.0999 45.1688 11.1571 47.0691C11.2196 48.9746 11.2456 51.1769 11.2456 53.6759V85.8822V89.5891V128.001C12.7763 132.099 14.8536 135.826 17.4308 139.117C20.2422 142.657 23.366 145.755 26.7709 148.394V104.37L34.4502 96.1595L76.9338 154.887C77.9334 156.287 78.9694 157.651 80.0367 158.974C80.6355 159.718 81.2498 160.458 81.8798 161.181C82.7128 162.155 83.5718 163.108 84.4569 164.039C85.1754 164.805 85.9095 165.555 86.6592 166.289C88.8146 168.413 91.0793 170.412 93.4534 172.286C99.701 177.222 106.933 180.288 115.143 181.481C118.235 181.954 121.391 182.105 124.603 181.928C127.815 181.746 130.913 181.121 133.886 180.054C136.858 178.982 139.535 177.435 141.919 175.415C144.298 173.39 146.141 170.771 147.453 167.559H146.016V167.554Z" fill="#960256"/>
</svg>
