<svg width="57" height="57" viewBox="0 0 57 57" fill="none" xmlns="http://www.w3.org/2000/svg">
<mask id="path-1-outside-1_24_2111" maskUnits="userSpaceOnUse" x="0" y="0.0090332" width="57" height="57" fill="black">
<rect fill="white" y="0.0090332" width="57" height="57"/>
<path d="M6.56051 43.2714C4.73656 41.0111 4.92443 38.4395 5.3589 35.9345C5.81097 33.3297 8.22595 31.5899 10.8797 31.5586C11.3161 31.5527 11.7721 31.3277 12.1772 31.1241C13.1811 30.6192 14.1636 30.0693 15.2634 29.4783C13.6156 27.6485 13.8113 25.2237 14.054 22.889C14.3241 20.2881 16.0071 18.7205 18.4906 18.0355C18.2303 16.1098 16.4279 14.5716 14.2967 14.5266C11.9815 14.4776 9.66436 14.4718 7.35115 14.5266C4.77179 14.5872 2.90086 16.6206 2.84802 19.3506C2.81867 20.883 2.83628 22.4173 2.84411 23.9497C2.84802 24.6268 2.87151 25.3998 1.96932 25.3959C1.03386 25.392 1.02016 24.6072 1.02603 23.8851C1.03973 22.384 1.02407 20.885 1.0319 19.3839C1.04951 16.1372 2.79323 13.824 5.91469 12.8964C6.10061 12.8416 6.28261 12.7731 6.5977 12.6674C4.84615 10.7945 5.11231 8.50087 5.18276 6.27572C5.27474 3.39889 7.80323 1.04067 10.7114 1.00935C13.6489 0.978042 16.1519 3.24233 16.3476 6.14656C16.4083 7.05658 16.514 7.99595 16.3574 8.87858C16.1245 10.1898 15.6764 11.4619 15.3163 12.7672C17.8232 13.2995 19.6961 14.8788 20.4574 17.6911C20.5181 17.9142 20.9036 18.1118 21.1756 18.2038C23.573 19.0043 25.0173 20.8008 25.1895 23.3058C25.2482 24.1493 25.2443 25.0026 25.211 25.848C25.0799 29.1612 22.7823 31.4216 19.4573 31.5116C18.3164 31.5429 17.1696 31.4549 16.0345 31.5527C15.2595 31.6193 14.5021 31.9089 13.4962 32.1594C13.9013 32.5097 14.0579 32.6526 14.2223 32.7857C16.0795 34.2808 17.0756 37.4845 16.3046 39.7214C16.2028 40.0149 15.6411 40.3907 15.3906 40.33C15.056 40.2478 14.6313 39.8055 14.5746 39.4631C14.4513 38.6998 14.5413 37.9033 14.5276 37.1205C14.4924 35.228 13.0109 33.6096 11.2261 33.5039C8.96766 33.3708 7.31201 34.6096 7.08891 36.7134C6.9754 37.7741 6.96953 38.8662 7.07521 39.9288C7.27483 41.9504 8.80523 43.2577 10.8386 43.2773C11.5568 43.2832 12.277 43.3184 12.9913 43.2714C15.7194 43.0973 17.9974 43.9173 19.5885 46.2266C20.3165 45.5631 20.9388 44.8449 21.7021 44.3439C22.4457 43.8566 23.3362 43.5904 24.2638 43.1834C22.7099 41.4905 22.9213 39.3535 22.9311 37.2516C22.9448 34.1145 25.4302 31.6271 28.5732 31.5606C29.039 31.5508 29.5165 31.2905 29.9549 31.0772C30.9666 30.586 31.9569 30.0517 33.0254 29.4979C31.3581 27.6504 31.5988 25.208 31.8238 22.8694C32.0743 20.2646 33.7946 18.7224 36.2506 18.0336C35.8534 16.0472 34.1135 14.5794 32.0391 14.5324C29.6926 14.4796 27.3422 14.4757 24.9957 14.5481C24.3088 14.5696 23.6121 14.8651 22.9585 15.1332C22.3772 15.37 21.8449 15.4718 21.5083 14.8671C21.1365 14.1978 21.5357 13.7398 22.1346 13.4756C22.8176 13.1762 23.526 12.9355 24.3147 12.6341C22.5005 10.6693 22.8254 8.22297 22.9996 5.8804C23.2148 3.00161 25.9527 0.844963 28.8668 1.02305C31.7632 1.19919 34.0607 3.57111 34.1194 6.45381C34.1273 6.81195 34.1135 7.17204 34.1194 7.53018C34.1586 10.2779 34.1546 10.2974 32.8023 12.7202C35.5109 13.3171 37.3583 14.8417 38.1353 17.5717C38.2096 17.832 38.5873 18.0903 38.8789 18.1901C41.5033 19.0884 42.9045 20.9769 42.9495 23.7481C42.9593 24.3998 42.9613 25.0534 42.9495 25.7051C42.8928 29.1143 40.5815 31.4392 37.1606 31.5175C35.9864 31.5449 34.8063 31.4627 33.6399 31.5645C32.9021 31.6271 32.1839 31.9363 31.4696 32.1301C32.2426 33.0851 32.9883 33.8209 33.5088 34.6918C34.4306 36.232 34.137 37.9835 34.0588 39.6646C34.047 39.921 33.4149 40.3633 33.1174 40.3281C32.8239 40.2928 32.4168 39.7821 32.3679 39.4357C32.2289 38.4434 32.3816 37.4003 32.1741 36.4316C31.7455 34.4433 30.315 33.4452 28.2659 33.5039C26.5614 33.5528 25.0545 34.7916 24.8157 36.6488C24.6533 37.917 24.7061 39.2634 24.9449 40.5218C25.2639 42.2009 26.7943 43.2558 28.5164 43.2832C29.9823 43.3067 31.4618 43.2186 32.908 43.3947C34.775 43.6217 36.2252 44.6668 37.3818 46.3538C38.5227 44.6844 40.0434 43.6609 42.0865 43.3204C40.2136 40.923 40.4211 38.2634 40.9534 35.6879C41.5053 33.0244 44.2803 31.2729 46.8519 31.6251C49.7444 32.0224 51.8325 34.2769 51.8951 37.0833C51.9127 37.8661 51.9891 38.6646 51.8579 39.4239C51.7953 39.786 51.31 40.0736 51.0145 40.3966C50.7072 40.0913 50.1906 39.8212 50.1338 39.4728C49.9792 38.5491 50.0849 37.5843 49.9694 36.6508C49.7189 34.6096 48.0848 33.3904 45.8655 33.5078C44.0768 33.6037 42.5758 35.2065 42.5307 37.095C42.5112 37.9424 42.5112 38.7918 42.5307 39.6392C42.5797 41.6588 44.2099 43.2323 46.2491 43.2871C47.8715 43.3321 49.5252 43.2421 51.1084 43.5278C53.8659 44.0269 55.9129 46.5671 56.0049 49.3656C56.0656 51.1896 56.0166 53.0175 56.0245 54.8453C56.0284 55.4833 55.8033 55.9784 55.1125 55.9863C54.4099 55.9941 54.226 55.5048 54.2162 54.859C54.1888 52.8413 54.2494 50.8099 54.0342 48.8098C53.8248 46.8626 52.1632 45.3244 50.2082 45.2246C47.6719 45.0934 45.1199 45.0739 42.5836 45.1854C40.1021 45.295 38.4288 47.1327 38.3173 49.6729C38.2527 51.1387 38.2996 52.6084 38.2957 54.0762C38.2957 54.3698 38.2938 54.6633 38.2899 54.9569C38.284 55.5635 37.9904 56.0841 37.3896 55.951C37.0197 55.8708 36.5148 55.315 36.4913 54.9451C36.3896 53.3854 36.4483 51.8178 36.4463 50.2522C36.4424 46.9291 34.6498 45.1384 31.3033 45.1267C29.3795 45.1189 27.4538 45.1091 25.53 45.1306C22.4477 45.1658 20.614 47.0191 20.6022 50.0819C20.5963 51.6143 20.5944 53.1486 20.6042 54.6809C20.6081 55.3698 20.4633 55.9824 19.6472 55.9824C18.8644 55.9824 18.7626 55.3737 18.7665 54.7318C18.7763 53.1662 18.7861 51.6006 18.7646 50.0349C18.7215 47.0348 16.8623 45.1698 13.8583 45.1326C11.8034 45.1052 9.74852 45.1013 7.69363 45.1345C4.76396 45.1815 2.88717 47.07 2.8402 49.9978C2.81476 51.6612 2.87934 53.3267 2.79323 54.9862C2.77561 55.3365 2.28244 55.6634 2.0065 56C1.68163 55.7045 1.08278 55.4148 1.07495 55.1095C1.01624 52.994 0.910564 50.8549 1.14736 48.7609C1.47027 45.9526 3.18072 44.3439 6.56051 43.2714ZM32.4638 7.79242C32.4227 7.7846 32.3796 7.77872 32.3385 7.7709C32.3385 7.34622 32.3581 6.92154 32.3346 6.50078C32.227 4.55354 30.7533 3.04662 28.7767 2.84505C27.0917 2.67283 25.3108 3.87445 24.9409 5.6573C24.7002 6.81782 24.6826 8.05467 24.7648 9.24258C24.894 11.0939 26.2972 12.4188 28.1974 12.6909C29.6926 12.9061 31.4539 11.8885 31.9941 10.3542C32.2779 9.54397 32.315 8.6496 32.4638 7.79242ZM41.1823 24.7305C41.1706 24.7305 41.1589 24.7286 41.1471 24.7286C41.1471 24.2726 41.1726 23.8146 41.1432 23.3606C41.0238 21.4799 39.4915 19.9475 37.6108 19.8047C35.8123 19.6696 34.0588 20.8713 33.7495 22.6874C33.5401 23.9164 33.501 25.2257 33.6713 26.4605C33.9374 28.3882 35.4737 29.6114 37.3035 29.6348C39.1353 29.6583 40.652 28.4587 41.0669 26.574C41.196 25.9811 41.1471 25.347 41.1823 24.7305ZM14.4943 7.79242C14.5061 7.79242 14.5178 7.79242 14.5295 7.79242C14.5295 7.3697 14.5374 6.94503 14.5276 6.52231C14.4884 4.54962 12.96 2.98204 10.9423 2.83722C9.09291 2.70219 7.28853 4.17387 7.09478 6.10546C6.98323 7.2288 6.99302 8.38345 7.10652 9.50678C7.28657 11.2994 8.89134 12.6635 10.7114 12.7183C12.4512 12.7711 14.2027 11.3777 14.4806 9.64377C14.5765 9.04101 14.4943 8.41084 14.4943 7.79242ZM23.2853 24.8069C23.3029 24.8069 23.3205 24.8069 23.3381 24.8069C23.3381 24.3509 23.346 23.8949 23.3362 23.4408C23.2951 21.4819 21.7001 19.8771 19.7274 19.8027C17.7645 19.7284 16.0325 21.2235 15.8936 23.1845C15.8212 24.1865 15.8231 25.2022 15.8877 26.2061C16.0071 28.0731 17.4396 29.4783 19.2734 29.6192C21.1521 29.764 22.9017 28.5487 23.2657 26.7521C23.3929 26.1278 23.2853 25.4566 23.2853 24.8069Z"/>
</mask>
<path d="M6.56051 43.2714C4.73656 41.0111 4.92443 38.4395 5.3589 35.9345C5.81097 33.3297 8.22595 31.5899 10.8797 31.5586C11.3161 31.5527 11.7721 31.3277 12.1772 31.1241C13.1811 30.6192 14.1636 30.0693 15.2634 29.4783C13.6156 27.6485 13.8113 25.2237 14.054 22.889C14.3241 20.2881 16.0071 18.7205 18.4906 18.0355C18.2303 16.1098 16.4279 14.5716 14.2967 14.5266C11.9815 14.4776 9.66436 14.4718 7.35115 14.5266C4.77179 14.5872 2.90086 16.6206 2.84802 19.3506C2.81867 20.883 2.83628 22.4173 2.84411 23.9497C2.84802 24.6268 2.87151 25.3998 1.96932 25.3959C1.03386 25.392 1.02016 24.6072 1.02603 23.8851C1.03973 22.384 1.02407 20.885 1.0319 19.3839C1.04951 16.1372 2.79323 13.824 5.91469 12.8964C6.10061 12.8416 6.28261 12.7731 6.5977 12.6674C4.84615 10.7945 5.11231 8.50087 5.18276 6.27572C5.27474 3.39889 7.80323 1.04067 10.7114 1.00935C13.6489 0.978042 16.1519 3.24233 16.3476 6.14656C16.4083 7.05658 16.514 7.99595 16.3574 8.87858C16.1245 10.1898 15.6764 11.4619 15.3163 12.7672C17.8232 13.2995 19.6961 14.8788 20.4574 17.6911C20.5181 17.9142 20.9036 18.1118 21.1756 18.2038C23.573 19.0043 25.0173 20.8008 25.1895 23.3058C25.2482 24.1493 25.2443 25.0026 25.211 25.848C25.0799 29.1612 22.7823 31.4216 19.4573 31.5116C18.3164 31.5429 17.1696 31.4549 16.0345 31.5527C15.2595 31.6193 14.5021 31.9089 13.4962 32.1594C13.9013 32.5097 14.0579 32.6526 14.2223 32.7857C16.0795 34.2808 17.0756 37.4845 16.3046 39.7214C16.2028 40.0149 15.6411 40.3907 15.3906 40.33C15.056 40.2478 14.6313 39.8055 14.5746 39.4631C14.4513 38.6998 14.5413 37.9033 14.5276 37.1205C14.4924 35.228 13.0109 33.6096 11.2261 33.5039C8.96766 33.3708 7.31201 34.6096 7.08891 36.7134C6.9754 37.7741 6.96953 38.8662 7.07521 39.9288C7.27483 41.9504 8.80523 43.2577 10.8386 43.2773C11.5568 43.2832 12.277 43.3184 12.9913 43.2714C15.7194 43.0973 17.9974 43.9173 19.5885 46.2266C20.3165 45.5631 20.9388 44.8449 21.7021 44.3439C22.4457 43.8566 23.3362 43.5904 24.2638 43.1834C22.7099 41.4905 22.9213 39.3535 22.9311 37.2516C22.9448 34.1145 25.4302 31.6271 28.5732 31.5606C29.039 31.5508 29.5165 31.2905 29.9549 31.0772C30.9666 30.586 31.9569 30.0517 33.0254 29.4979C31.3581 27.6504 31.5988 25.208 31.8238 22.8694C32.0743 20.2646 33.7946 18.7224 36.2506 18.0336C35.8534 16.0472 34.1135 14.5794 32.0391 14.5324C29.6926 14.4796 27.3422 14.4757 24.9957 14.5481C24.3088 14.5696 23.6121 14.8651 22.9585 15.1332C22.3772 15.37 21.8449 15.4718 21.5083 14.8671C21.1365 14.1978 21.5357 13.7398 22.1346 13.4756C22.8176 13.1762 23.526 12.9355 24.3147 12.6341C22.5005 10.6693 22.8254 8.22297 22.9996 5.8804C23.2148 3.00161 25.9527 0.844963 28.8668 1.02305C31.7632 1.19919 34.0607 3.57111 34.1194 6.45381C34.1273 6.81195 34.1135 7.17204 34.1194 7.53018C34.1586 10.2779 34.1546 10.2974 32.8023 12.7202C35.5109 13.3171 37.3583 14.8417 38.1353 17.5717C38.2096 17.832 38.5873 18.0903 38.8789 18.1901C41.5033 19.0884 42.9045 20.9769 42.9495 23.7481C42.9593 24.3998 42.9613 25.0534 42.9495 25.7051C42.8928 29.1143 40.5815 31.4392 37.1606 31.5175C35.9864 31.5449 34.8063 31.4627 33.6399 31.5645C32.9021 31.6271 32.1839 31.9363 31.4696 32.1301C32.2426 33.0851 32.9883 33.8209 33.5088 34.6918C34.4306 36.232 34.137 37.9835 34.0588 39.6646C34.047 39.921 33.4149 40.3633 33.1174 40.3281C32.8239 40.2928 32.4168 39.7821 32.3679 39.4357C32.2289 38.4434 32.3816 37.4003 32.1741 36.4316C31.7455 34.4433 30.315 33.4452 28.2659 33.5039C26.5614 33.5528 25.0545 34.7916 24.8157 36.6488C24.6533 37.917 24.7061 39.2634 24.9449 40.5218C25.2639 42.2009 26.7943 43.2558 28.5164 43.2832C29.9823 43.3067 31.4618 43.2186 32.908 43.3947C34.775 43.6217 36.2252 44.6668 37.3818 46.3538C38.5227 44.6844 40.0434 43.6609 42.0865 43.3204C40.2136 40.923 40.4211 38.2634 40.9534 35.6879C41.5053 33.0244 44.2803 31.2729 46.8519 31.6251C49.7444 32.0224 51.8325 34.2769 51.8951 37.0833C51.9127 37.8661 51.9891 38.6646 51.8579 39.4239C51.7953 39.786 51.31 40.0736 51.0145 40.3966C50.7072 40.0913 50.1906 39.8212 50.1338 39.4728C49.9792 38.5491 50.0849 37.5843 49.9694 36.6508C49.7189 34.6096 48.0848 33.3904 45.8655 33.5078C44.0768 33.6037 42.5758 35.2065 42.5307 37.095C42.5112 37.9424 42.5112 38.7918 42.5307 39.6392C42.5797 41.6588 44.2099 43.2323 46.2491 43.2871C47.8715 43.3321 49.5252 43.2421 51.1084 43.5278C53.8659 44.0269 55.9129 46.5671 56.0049 49.3656C56.0656 51.1896 56.0166 53.0175 56.0245 54.8453C56.0284 55.4833 55.8033 55.9784 55.1125 55.9863C54.4099 55.9941 54.226 55.5048 54.2162 54.859C54.1888 52.8413 54.2494 50.8099 54.0342 48.8098C53.8248 46.8626 52.1632 45.3244 50.2082 45.2246C47.6719 45.0934 45.1199 45.0739 42.5836 45.1854C40.1021 45.295 38.4288 47.1327 38.3173 49.6729C38.2527 51.1387 38.2996 52.6084 38.2957 54.0762C38.2957 54.3698 38.2938 54.6633 38.2899 54.9569C38.284 55.5635 37.9904 56.0841 37.3896 55.951C37.0197 55.8708 36.5148 55.315 36.4913 54.9451C36.3896 53.3854 36.4483 51.8178 36.4463 50.2522C36.4424 46.9291 34.6498 45.1384 31.3033 45.1267C29.3795 45.1189 27.4538 45.1091 25.53 45.1306C22.4477 45.1658 20.614 47.0191 20.6022 50.0819C20.5963 51.6143 20.5944 53.1486 20.6042 54.6809C20.6081 55.3698 20.4633 55.9824 19.6472 55.9824C18.8644 55.9824 18.7626 55.3737 18.7665 54.7318C18.7763 53.1662 18.7861 51.6006 18.7646 50.0349C18.7215 47.0348 16.8623 45.1698 13.8583 45.1326C11.8034 45.1052 9.74852 45.1013 7.69363 45.1345C4.76396 45.1815 2.88717 47.07 2.8402 49.9978C2.81476 51.6612 2.87934 53.3267 2.79323 54.9862C2.77561 55.3365 2.28244 55.6634 2.0065 56C1.68163 55.7045 1.08278 55.4148 1.07495 55.1095C1.01624 52.994 0.910564 50.8549 1.14736 48.7609C1.47027 45.9526 3.18072 44.3439 6.56051 43.2714ZM32.4638 7.79242C32.4227 7.7846 32.3796 7.77872 32.3385 7.7709C32.3385 7.34622 32.3581 6.92154 32.3346 6.50078C32.227 4.55354 30.7533 3.04662 28.7767 2.84505C27.0917 2.67283 25.3108 3.87445 24.9409 5.6573C24.7002 6.81782 24.6826 8.05467 24.7648 9.24258C24.894 11.0939 26.2972 12.4188 28.1974 12.6909C29.6926 12.9061 31.4539 11.8885 31.9941 10.3542C32.2779 9.54397 32.315 8.6496 32.4638 7.79242ZM41.1823 24.7305C41.1706 24.7305 41.1589 24.7286 41.1471 24.7286C41.1471 24.2726 41.1726 23.8146 41.1432 23.3606C41.0238 21.4799 39.4915 19.9475 37.6108 19.8047C35.8123 19.6696 34.0588 20.8713 33.7495 22.6874C33.5401 23.9164 33.501 25.2257 33.6713 26.4605C33.9374 28.3882 35.4737 29.6114 37.3035 29.6348C39.1353 29.6583 40.652 28.4587 41.0669 26.574C41.196 25.9811 41.1471 25.347 41.1823 24.7305ZM14.4943 7.79242C14.5061 7.79242 14.5178 7.79242 14.5295 7.79242C14.5295 7.3697 14.5374 6.94503 14.5276 6.52231C14.4884 4.54962 12.96 2.98204 10.9423 2.83722C9.09291 2.70219 7.28853 4.17387 7.09478 6.10546C6.98323 7.2288 6.99302 8.38345 7.10652 9.50678C7.28657 11.2994 8.89134 12.6635 10.7114 12.7183C12.4512 12.7711 14.2027 11.3777 14.4806 9.64377C14.5765 9.04101 14.4943 8.41084 14.4943 7.79242ZM23.2853 24.8069C23.3029 24.8069 23.3205 24.8069 23.3381 24.8069C23.3381 24.3509 23.346 23.8949 23.3362 23.4408C23.2951 21.4819 21.7001 19.8771 19.7274 19.8027C17.7645 19.7284 16.0325 21.2235 15.8936 23.1845C15.8212 24.1865 15.8231 25.2022 15.8877 26.2061C16.0071 28.0731 17.4396 29.4783 19.2734 29.6192C21.1521 29.764 22.9017 28.5487 23.2657 26.7521C23.3929 26.1278 23.2853 25.4566 23.2853 24.8069Z" fill="white"/>
<path d="M6.56051 43.2714C4.73656 41.0111 4.92443 38.4395 5.3589 35.9345C5.81097 33.3297 8.22595 31.5899 10.8797 31.5586C11.3161 31.5527 11.7721 31.3277 12.1772 31.1241C13.1811 30.6192 14.1636 30.0693 15.2634 29.4783C13.6156 27.6485 13.8113 25.2237 14.054 22.889C14.3241 20.2881 16.0071 18.7205 18.4906 18.0355C18.2303 16.1098 16.4279 14.5716 14.2967 14.5266C11.9815 14.4776 9.66436 14.4718 7.35115 14.5266C4.77179 14.5872 2.90086 16.6206 2.84802 19.3506C2.81867 20.883 2.83628 22.4173 2.84411 23.9497C2.84802 24.6268 2.87151 25.3998 1.96932 25.3959C1.03386 25.392 1.02016 24.6072 1.02603 23.8851C1.03973 22.384 1.02407 20.885 1.0319 19.3839C1.04951 16.1372 2.79323 13.824 5.91469 12.8964C6.10061 12.8416 6.28261 12.7731 6.5977 12.6674C4.84615 10.7945 5.11231 8.50087 5.18276 6.27572C5.27474 3.39889 7.80323 1.04067 10.7114 1.00935C13.6489 0.978042 16.1519 3.24233 16.3476 6.14656C16.4083 7.05658 16.514 7.99595 16.3574 8.87858C16.1245 10.1898 15.6764 11.4619 15.3163 12.7672C17.8232 13.2995 19.6961 14.8788 20.4574 17.6911C20.5181 17.9142 20.9036 18.1118 21.1756 18.2038C23.573 19.0043 25.0173 20.8008 25.1895 23.3058C25.2482 24.1493 25.2443 25.0026 25.211 25.848C25.0799 29.1612 22.7823 31.4216 19.4573 31.5116C18.3164 31.5429 17.1696 31.4549 16.0345 31.5527C15.2595 31.6193 14.5021 31.9089 13.4962 32.1594C13.9013 32.5097 14.0579 32.6526 14.2223 32.7857C16.0795 34.2808 17.0756 37.4845 16.3046 39.7214C16.2028 40.0149 15.6411 40.3907 15.3906 40.33C15.056 40.2478 14.6313 39.8055 14.5746 39.4631C14.4513 38.6998 14.5413 37.9033 14.5276 37.1205C14.4924 35.228 13.0109 33.6096 11.2261 33.5039C8.96766 33.3708 7.31201 34.6096 7.08891 36.7134C6.9754 37.7741 6.96953 38.8662 7.07521 39.9288C7.27483 41.9504 8.80523 43.2577 10.8386 43.2773C11.5568 43.2832 12.277 43.3184 12.9913 43.2714C15.7194 43.0973 17.9974 43.9173 19.5885 46.2266C20.3165 45.5631 20.9388 44.8449 21.7021 44.3439C22.4457 43.8566 23.3362 43.5904 24.2638 43.1834C22.7099 41.4905 22.9213 39.3535 22.9311 37.2516C22.9448 34.1145 25.4302 31.6271 28.5732 31.5606C29.039 31.5508 29.5165 31.2905 29.9549 31.0772C30.9666 30.586 31.9569 30.0517 33.0254 29.4979C31.3581 27.6504 31.5988 25.208 31.8238 22.8694C32.0743 20.2646 33.7946 18.7224 36.2506 18.0336C35.8534 16.0472 34.1135 14.5794 32.0391 14.5324C29.6926 14.4796 27.3422 14.4757 24.9957 14.5481C24.3088 14.5696 23.6121 14.8651 22.9585 15.1332C22.3772 15.37 21.8449 15.4718 21.5083 14.8671C21.1365 14.1978 21.5357 13.7398 22.1346 13.4756C22.8176 13.1762 23.526 12.9355 24.3147 12.6341C22.5005 10.6693 22.8254 8.22297 22.9996 5.8804C23.2148 3.00161 25.9527 0.844963 28.8668 1.02305C31.7632 1.19919 34.0607 3.57111 34.1194 6.45381C34.1273 6.81195 34.1135 7.17204 34.1194 7.53018C34.1586 10.2779 34.1546 10.2974 32.8023 12.7202C35.5109 13.3171 37.3583 14.8417 38.1353 17.5717C38.2096 17.832 38.5873 18.0903 38.8789 18.1901C41.5033 19.0884 42.9045 20.9769 42.9495 23.7481C42.9593 24.3998 42.9613 25.0534 42.9495 25.7051C42.8928 29.1143 40.5815 31.4392 37.1606 31.5175C35.9864 31.5449 34.8063 31.4627 33.6399 31.5645C32.9021 31.6271 32.1839 31.9363 31.4696 32.1301C32.2426 33.0851 32.9883 33.8209 33.5088 34.6918C34.4306 36.232 34.137 37.9835 34.0588 39.6646C34.047 39.921 33.4149 40.3633 33.1174 40.3281C32.8239 40.2928 32.4168 39.7821 32.3679 39.4357C32.2289 38.4434 32.3816 37.4003 32.1741 36.4316C31.7455 34.4433 30.315 33.4452 28.2659 33.5039C26.5614 33.5528 25.0545 34.7916 24.8157 36.6488C24.6533 37.917 24.7061 39.2634 24.9449 40.5218C25.2639 42.2009 26.7943 43.2558 28.5164 43.2832C29.9823 43.3067 31.4618 43.2186 32.908 43.3947C34.775 43.6217 36.2252 44.6668 37.3818 46.3538C38.5227 44.6844 40.0434 43.6609 42.0865 43.3204C40.2136 40.923 40.4211 38.2634 40.9534 35.6879C41.5053 33.0244 44.2803 31.2729 46.8519 31.6251C49.7444 32.0224 51.8325 34.2769 51.8951 37.0833C51.9127 37.8661 51.9891 38.6646 51.8579 39.4239C51.7953 39.786 51.31 40.0736 51.0145 40.3966C50.7072 40.0913 50.1906 39.8212 50.1338 39.4728C49.9792 38.5491 50.0849 37.5843 49.9694 36.6508C49.7189 34.6096 48.0848 33.3904 45.8655 33.5078C44.0768 33.6037 42.5758 35.2065 42.5307 37.095C42.5112 37.9424 42.5112 38.7918 42.5307 39.6392C42.5797 41.6588 44.2099 43.2323 46.2491 43.2871C47.8715 43.3321 49.5252 43.2421 51.1084 43.5278C53.8659 44.0269 55.9129 46.5671 56.0049 49.3656C56.0656 51.1896 56.0166 53.0175 56.0245 54.8453C56.0284 55.4833 55.8033 55.9784 55.1125 55.9863C54.4099 55.9941 54.226 55.5048 54.2162 54.859C54.1888 52.8413 54.2494 50.8099 54.0342 48.8098C53.8248 46.8626 52.1632 45.3244 50.2082 45.2246C47.6719 45.0934 45.1199 45.0739 42.5836 45.1854C40.1021 45.295 38.4288 47.1327 38.3173 49.6729C38.2527 51.1387 38.2996 52.6084 38.2957 54.0762C38.2957 54.3698 38.2938 54.6633 38.2899 54.9569C38.284 55.5635 37.9904 56.0841 37.3896 55.951C37.0197 55.8708 36.5148 55.315 36.4913 54.9451C36.3896 53.3854 36.4483 51.8178 36.4463 50.2522C36.4424 46.9291 34.6498 45.1384 31.3033 45.1267C29.3795 45.1189 27.4538 45.1091 25.53 45.1306C22.4477 45.1658 20.614 47.0191 20.6022 50.0819C20.5963 51.6143 20.5944 53.1486 20.6042 54.6809C20.6081 55.3698 20.4633 55.9824 19.6472 55.9824C18.8644 55.9824 18.7626 55.3737 18.7665 54.7318C18.7763 53.1662 18.7861 51.6006 18.7646 50.0349C18.7215 47.0348 16.8623 45.1698 13.8583 45.1326C11.8034 45.1052 9.74852 45.1013 7.69363 45.1345C4.76396 45.1815 2.88717 47.07 2.8402 49.9978C2.81476 51.6612 2.87934 53.3267 2.79323 54.9862C2.77561 55.3365 2.28244 55.6634 2.0065 56C1.68163 55.7045 1.08278 55.4148 1.07495 55.1095C1.01624 52.994 0.910564 50.8549 1.14736 48.7609C1.47027 45.9526 3.18072 44.3439 6.56051 43.2714ZM32.4638 7.79242C32.4227 7.7846 32.3796 7.77872 32.3385 7.7709C32.3385 7.34622 32.3581 6.92154 32.3346 6.50078C32.227 4.55354 30.7533 3.04662 28.7767 2.84505C27.0917 2.67283 25.3108 3.87445 24.9409 5.6573C24.7002 6.81782 24.6826 8.05467 24.7648 9.24258C24.894 11.0939 26.2972 12.4188 28.1974 12.6909C29.6926 12.9061 31.4539 11.8885 31.9941 10.3542C32.2779 9.54397 32.315 8.6496 32.4638 7.79242ZM41.1823 24.7305C41.1706 24.7305 41.1589 24.7286 41.1471 24.7286C41.1471 24.2726 41.1726 23.8146 41.1432 23.3606C41.0238 21.4799 39.4915 19.9475 37.6108 19.8047C35.8123 19.6696 34.0588 20.8713 33.7495 22.6874C33.5401 23.9164 33.501 25.2257 33.6713 26.4605C33.9374 28.3882 35.4737 29.6114 37.3035 29.6348C39.1353 29.6583 40.652 28.4587 41.0669 26.574C41.196 25.9811 41.1471 25.347 41.1823 24.7305ZM14.4943 7.79242C14.5061 7.79242 14.5178 7.79242 14.5295 7.79242C14.5295 7.3697 14.5374 6.94503 14.5276 6.52231C14.4884 4.54962 12.96 2.98204 10.9423 2.83722C9.09291 2.70219 7.28853 4.17387 7.09478 6.10546C6.98323 7.2288 6.99302 8.38345 7.10652 9.50678C7.28657 11.2994 8.89134 12.6635 10.7114 12.7183C12.4512 12.7711 14.2027 11.3777 14.4806 9.64377C14.5765 9.04101 14.4943 8.41084 14.4943 7.79242ZM23.2853 24.8069C23.3029 24.8069 23.3205 24.8069 23.3381 24.8069C23.3381 24.3509 23.346 23.8949 23.3362 23.4408C23.2951 21.4819 21.7001 19.8771 19.7274 19.8027C17.7645 19.7284 16.0325 21.2235 15.8936 23.1845C15.8212 24.1865 15.8231 25.2022 15.8877 26.2061C16.0071 28.0731 17.4396 29.4783 19.2734 29.6192C21.1521 29.764 22.9017 28.5487 23.2657 26.7521C23.3929 26.1278 23.2853 25.4566 23.2853 24.8069Z" stroke="white" stroke-width="0.4" mask="url(#path-1-outside-1_24_2111)"/>
<path d="M56.1205 18.9714V18.9715C56.1342 19.902 56.1326 20.8378 56.1309 21.7728C56.1295 22.5683 56.1281 23.3633 56.1362 24.1542M56.1205 18.9714L40.2195 13.3367L40.1652 13.2527C40.1652 13.2527 40.1651 13.2528 40.1651 13.2528C39.986 13.3685 39.8236 13.5883 39.7157 13.8162C39.6084 14.0425 39.5425 14.3032 39.5854 14.5062L39.5854 14.5063C39.6516 14.8176 39.8313 15.0249 40.087 15.1186C40.3365 15.21 40.6445 15.1881 40.9664 15.0771L40.9666 15.077C41.6022 14.8561 42.2683 14.6536 42.9147 14.6383L42.9148 14.6383C45.1617 14.5836 47.4089 14.5875 49.6566 14.6246C51.855 14.6611 53.7045 16.1669 53.9583 18.3387M56.1205 18.9714C56.0966 17.4303 55.5571 16.0718 54.5628 14.8909C53.5455 13.6783 52.2181 13.0209 50.6799 12.6494M56.1205 18.9714L50.6799 12.6494M56.1362 24.1542L56.0362 24.1552M56.1362 24.1542C56.1362 24.1541 56.1362 24.1541 56.1362 24.154L56.0362 24.1552M56.1362 24.1542C56.1401 24.4954 56.0936 24.8271 55.9408 25.0783C55.7831 25.3376 55.5199 25.4983 55.1261 25.5057L55.126 25.5057C54.9258 25.5094 54.7588 25.4736 54.6216 25.4016C54.4838 25.3292 54.3821 25.2232 54.3084 25.096C54.1637 24.8464 54.126 24.513 54.122 24.1779L54.122 24.1777C54.1172 23.6942 54.1184 23.2106 54.1196 22.7275C54.1234 21.2546 54.1272 19.7865 53.9583 18.3387M56.0362 24.1552C56.044 24.8245 55.8503 25.392 55.1242 25.4057C54.3747 25.4194 54.2298 24.8421 54.222 24.1767L54.4862 14.9552C55.4667 16.1196 55.997 17.4563 56.0205 18.973C56.0343 19.905 56.0326 20.8376 56.0309 21.7705C56.0295 22.5653 56.0281 23.3602 56.0362 24.1552ZM53.9583 18.3387L54.0576 18.3272L53.9583 18.3388C53.9583 18.3388 53.9583 18.3387 53.9583 18.3387ZM50.6799 12.6494C51.2464 11.7645 51.5817 11.1519 51.7728 10.5023C51.9725 9.82377 52.0127 9.11193 52.0068 8.01893L52.0068 8.01867C52.0051 7.80011 52.0053 7.57833 52.0055 7.35579C52.0058 7.08767 52.0061 6.81845 52.0029 6.55245C51.971 3.69684 49.8267 1.32358 46.947 0.945462L46.947 0.945459C44.2749 0.595273 41.441 2.30211 40.8828 4.99513L40.8828 4.99514C40.3507 7.56306 40.0744 10.2701 41.8902 12.6081C41.743 12.6558 41.5967 12.6986 41.4502 12.7415L50.6799 12.6494ZM46.2546 2.92745C48.0282 2.89888 49.6779 4.26854 49.8621 6.04729L49.8621 6.04739C49.9788 7.16425 49.9866 8.312 49.8738 9.42817C49.6816 11.312 47.9283 12.7437 46.1391 12.6107C44.1663 12.4637 42.686 10.9496 42.6346 9.02858L42.6346 9.02848C42.6266 8.73955 42.6286 8.45087 42.6307 8.1605C42.6315 8.06094 42.6322 7.96118 42.6325 7.86114H42.6581V7.76114C42.6581 7.56839 42.6517 7.37819 42.6453 7.1899C42.6318 6.79213 42.6186 6.40291 42.6671 6.01636C42.8854 4.33529 44.51 2.95605 46.2546 2.92745ZM46.2546 2.92745L46.253 2.82747M46.2546 2.92745L46.253 2.82747M46.253 2.82747C48.075 2.79811 49.7717 4.20326 49.9616 6.037L42.5679 6.00373C42.7929 4.2698 44.4623 2.85682 46.253 2.82747Z" fill="white" stroke="white" stroke-width="0.2"/>
</svg>
